<?xml version="1.0" encoding="UTF-8"?>
<!DOCTYPE svg PUBLIC "-//W3C//DTD SVG 1.1//EN" "http://www.w3.org/Graphics/SVG/1.1/DTD/svg11.dtd">
<svg xmlns="http://www.w3.org/2000/svg" version="1.1" width="820px" height="730px" style="shape-rendering:geometricPrecision; text-rendering:geometricPrecision; image-rendering:optimizeQuality; fill-rule:evenodd; clip-rule:evenodd" xmlns:xlink="http://www.w3.org/1999/xlink">
<g><path style="opacity:1" fill="#fefefe" d="M -0.5,-0.5 C 272.833,-0.5 546.167,-0.5 819.5,-0.5C 819.5,242.833 819.5,486.167 819.5,729.5C 546.167,729.5 272.833,729.5 -0.5,729.5C -0.5,486.167 -0.5,242.833 -0.5,-0.5 Z"/></g>
<g><path style="opacity:1" fill="#322127" d="M 586.5,20.5 C 587.962,21.4577 589.295,22.6244 590.5,24C 589.004,24.5074 587.837,24.0074 587,22.5C 585.488,23.2567 584.154,24.2567 583,25.5C 583.112,23.2028 584.278,21.5361 586.5,20.5 Z"/></g>
<g><path style="opacity:1" fill="#291c21" d="M 459.5,26.5 C 459.007,28.8056 458.674,31.139 458.5,33.5C 455.795,38.8398 455.128,44.5065 456.5,50.5C 457.799,49.91 458.632,48.91 459,47.5C 459.684,48.7839 459.517,49.9505 458.5,51C 456.559,51.7429 454.726,51.5762 453,50.5C 453.456,43.5969 454.623,36.7636 456.5,30C 455.978,29.0497 455.311,28.2164 454.5,27.5C 456.045,26.5481 457.712,26.2148 459.5,26.5 Z"/></g>
<g><path style="opacity:1" fill="#2f232a" d="M 392.5,26.5 C 399.5,26.5 406.5,26.5 413.5,26.5C 413.665,29.5184 413.498,32.5184 413,35.5C 412.764,33.236 412.264,31.0693 411.5,29C 407.514,28.5012 403.514,28.3345 399.5,28.5C 398.833,31.8333 398.167,35.1667 397.5,38.5C 399.527,38.6621 401.527,38.4955 403.5,38C 404.849,37.2276 405.682,36.0609 406,34.5C 406.388,37.6846 405.721,40.6846 404,43.5C 403.51,42.2068 403.343,40.8734 403.5,39.5C 401.076,39.1924 398.743,39.5258 396.5,40.5C 395.198,43.7079 394.531,47.0412 394.5,50.5C 396.233,51.8402 393.9,52.0069 387.5,51C 388.766,50.6905 389.933,50.1905 391,49.5C 392.345,42.4538 393.845,35.4538 395.5,28.5C 393.821,28.7148 392.821,28.0481 392.5,26.5 Z"/></g>
<g><path style="opacity:1" fill="#ac8153" d="M 441.5,26.5 C 443.51,28.3166 443.843,30.3166 442.5,32.5C 442.672,30.5082 442.005,28.8415 440.5,27.5C 440.624,26.8933 440.957,26.56 441.5,26.5 Z"/></g>
<g><path style="opacity:1" fill="#483736" d="M 586.5,36.5 C 587.968,33.6128 586.968,32.2795 583.5,32.5C 582.006,32.7092 580.839,33.3759 580,34.5C 579.341,31.6466 580.508,29.9799 583.5,29.5C 585.167,30.1667 586.833,30.8333 588.5,31.5C 590.029,31.4712 591.196,30.8045 592,29.5C 591.602,31.6313 590.602,33.6313 589,35.5C 588.329,36.2524 587.496,36.5858 586.5,36.5 Z"/></g>
<g><path style="opacity:1" fill="#5d9ad6" d="M 459.5,26.5 C 460.645,28.9533 460.312,31.2866 458.5,33.5C 458.674,31.139 459.007,28.8056 459.5,26.5 Z"/></g>
<g><path style="opacity:1" fill="#2a1b25" d="M 506.5,50.5 C 506.5,50.8333 506.5,51.1667 506.5,51.5C 503.487,51.8928 500.82,51.2261 498.5,49.5C 499.059,45.1474 499.725,40.814 500.5,36.5C 501.5,36.5 502.5,36.5 503.5,36.5C 501.778,40.6164 501.278,44.9497 502,49.5C 503.356,50.3802 504.856,50.7135 506.5,50.5 Z"/></g>
<g><path style="opacity:1" fill="#2e2339" d="M 509.5,35.5 C 511.722,35.5587 512.722,36.7253 512.5,39C 512.375,40.6268 511.875,42.1268 511,43.5C 510.767,41.2199 509.934,39.2199 508.5,37.5C 508.863,36.8165 509.196,36.1499 509.5,35.5 Z"/></g>
<g><path style="opacity:1" fill="#32272e" d="M 523.5,35.5 C 531.322,35.4131 531.322,36.2464 523.5,38C 521.963,39.1096 521.297,40.6096 521.5,42.5C 524.216,42.3215 526.883,41.8215 529.5,41C 530.227,39.6012 530.727,38.1012 531,36.5C 531.667,38.1667 531.667,39.8333 531,41.5C 527.715,43.1373 524.215,43.8039 520.5,43.5C 520.244,45.7925 520.577,47.9592 521.5,50C 524.54,50.3201 527.54,50.3201 530.5,50C 520.821,53.9826 516.654,50.816 518,40.5C 519.812,38.6997 521.645,37.0331 523.5,35.5 Z"/></g>
<g><path style="opacity:1" fill="#26181e" d="M 425.5,35.5 C 434.303,34.788 437.137,38.4546 434,46.5C 429.51,52.1429 424.51,52.8096 419,48.5C 418.333,46.1667 418.333,43.8333 419,41.5C 421.063,39.2659 423.229,37.2659 425.5,35.5 Z"/></g>
<g><path style="opacity:1" fill="#f0f0ec" d="M 426.5,36.5 C 430.513,35.832 432.513,37.4987 432.5,41.5C 432.175,48.6817 428.675,51.3483 422,49.5C 421.333,46.8333 421.333,44.1667 422,41.5C 423.707,39.9625 425.207,38.2959 426.5,36.5 Z"/></g>
<g><path style="opacity:1" fill="#26181e" d="M 472.5,35.5 C 481.303,34.788 484.137,38.4546 481,46.5C 476.51,52.1429 471.51,52.8096 466,48.5C 465.333,46.1667 465.333,43.8333 466,41.5C 468.063,39.2659 470.229,37.2659 472.5,35.5 Z"/></g>
<g><path style="opacity:1" fill="#f0f0ec" d="M 473.5,36.5 C 477.513,35.832 479.513,37.4987 479.5,41.5C 479.175,48.6817 475.675,51.3483 469,49.5C 468.333,46.8333 468.333,44.1667 469,41.5C 470.707,39.9625 472.207,38.2959 473.5,36.5 Z"/></g>
<g><path style="opacity:1" fill="#36262f" d="M 498.5,49.5 C 495.859,52.0723 493.026,52.0723 490,49.5C 489.148,45.4823 489.648,41.649 491.5,38C 490.352,36.274 489.185,36.4407 488,38.5C 487.462,36.5269 488.296,35.5269 490.5,35.5C 492.609,35.7753 493.942,36.942 494.5,39C 492.815,42.638 492.149,46.4714 492.5,50.5C 494.621,50.6747 496.621,50.3414 498.5,49.5 Z"/></g>
<g><path style="opacity:1" fill="#2e2127" d="M 538.5,35.5 C 540.827,35.2471 542.827,35.9137 544.5,37.5C 547.718,34.7154 550.718,34.882 553.5,38C 552.968,40.0197 551.635,40.853 549.5,40.5C 549.33,39.1779 549.663,38.0113 550.5,37C 548.212,36.5825 546.212,37.2491 544.5,39C 543.617,42.4495 542.784,45.9495 542,49.5C 541.29,50.9733 540.124,51.6399 538.5,51.5C 539.48,47.5252 540.48,43.5252 541.5,39.5C 540.923,37.3456 539.923,36.0122 538.5,35.5 Z"/></g>
<g><path style="opacity:1" fill="#3a3642" d="M 586.5,36.5 C 585.19,38.1477 583.857,39.8144 582.5,41.5C 585.612,42.9829 588.445,42.6496 591,40.5C 591.112,43.7228 589.446,45.3894 586,45.5C 584.135,45.2945 582.468,44.6278 581,43.5C 579.395,44.1007 578.062,45.1007 577,46.5C 576.333,45.8333 576.333,45.1667 577,44.5C 579.766,41.2232 582.933,38.5566 586.5,36.5 Z"/></g>
<g><path style="opacity:1" fill="#212236" d="M 441.5,26.5 C 443.167,26.5 444.833,26.5 446.5,26.5C 445.151,34.5632 443.484,42.5632 441.5,50.5C 443.109,50.0941 444.443,50.0941 445.5,50.5C 443.647,51.7596 441.814,51.7596 440,50.5C 440.178,44.4418 441.011,38.4418 442.5,32.5C 443.843,30.3166 443.51,28.3166 441.5,26.5 Z"/></g>
<g><path style="opacity:1" fill="#5e709e" d="M 506.5,51.5 C 506.5,51.1667 506.5,50.8333 506.5,50.5C 508.27,48.8867 509.436,46.8867 510,44.5C 510.864,47.8129 509.698,50.1463 506.5,51.5 Z"/></g>
<g><path style="opacity:1" fill="#121212" d="M 390.5,523.5 C 508.999,524.666 627.666,524.833 746.5,524C 745.473,523.487 744.473,522.987 743.5,522.5C 735.38,519.61 728.047,515.443 721.5,510C 721.63,508.941 722.13,508.108 723,507.5C 736.191,516.509 750.691,522.343 766.5,525C 750.862,528.437 736.362,534.603 723,543.5C 721.318,542.135 721.151,540.635 722.5,539C 729.067,535.217 735.734,531.717 742.5,528.5C 743.473,528.013 744.473,527.513 745.5,527C 626.999,526.167 508.666,526.334 390.5,527.5C 386.47,563.698 366.303,583.031 330,585.5C 306.057,584.949 288.223,574.282 276.5,553.5C 203.678,589.744 131.011,626.244 58.5,663C 67.5198,663.319 76.5198,663.819 85.5,664.5C 85.5,665.833 85.5,667.167 85.5,668.5C 69.5958,666.637 53.9292,667.47 38.5,671C 50.6741,661.498 60.6741,650.165 68.5,637C 69.9653,636.399 70.9653,636.899 71.5,638.5C 67.1159,646.103 62.1159,653.27 56.5,660C 129.299,624.601 201.966,588.601 274.5,552C 274.957,551.586 275.291,551.086 275.5,550.5C 263.921,519.08 271.588,493.58 298.5,474C 306.502,469.055 315.168,466.221 324.5,465.5C 326.167,465.5 327.833,465.5 329.5,465.5C 329.5,404.5 329.5,343.5 329.5,282.5C 328.5,282.5 327.5,282.5 326.5,282.5C 326.782,281.222 327.449,280.222 328.5,279.5C 329.665,234.669 329.831,189.669 329,144.5C 328.487,145.527 327.987,146.527 327.5,147.5C 324.375,155.752 320.208,163.419 315,170.5C 314.075,169.953 313.242,169.287 312.5,168.5C 320.794,155.573 326.627,141.573 330,126.5C 333.699,141.566 339.865,155.566 348.5,168.5C 347.295,170.138 345.962,170.471 344.5,169.5C 340.313,163.127 336.647,156.461 333.5,149.5C 333.108,147.821 332.608,146.154 332,144.5C 331.5,251.499 331.333,358.499 331.5,465.5C 333.167,465.5 334.833,465.5 336.5,465.5C 350.083,467.078 361.916,472.411 372,481.5C 438.014,415.653 503.847,349.653 569.5,283.5C 566.524,278.462 565.691,273.129 567,267.5C 526.993,237.119 486.826,207.285 446.5,178C 451.291,185.582 455.291,193.582 458.5,202C 457.968,204.02 456.635,204.853 454.5,204.5C 449.969,188.936 441.969,175.436 430.5,164C 444.921,170.939 460.254,174.772 476.5,175.5C 476.5,176.833 476.5,178.167 476.5,179.5C 467.827,179.237 459.327,177.904 451,175.5C 449.278,175.611 449.112,176.111 450.5,177C 490.359,207.026 530.359,236.859 570.5,266.5C 572.527,265.139 574.194,263.473 575.5,261.5C 560.85,205.566 546.517,149.566 532.5,93.5C 523.149,93.4855 517.816,88.8188 516.5,79.5C 518.442,69.4008 524.442,65.5674 534.5,68C 543.059,72.343 545.225,78.843 541,87.5C 538.957,89.7122 536.791,91.7122 534.5,93.5C 549.458,149.333 563.792,205.333 577.5,261.5C 577.56,262.043 577.893,262.376 578.5,262.5C 579.667,199.169 579.833,135.836 579,72.5C 578.487,73.5266 577.987,74.5266 577.5,75.5C 574.139,83.887 569.973,91.887 565,99.5C 564.333,98.8333 563.667,98.1667 563,97.5C 566.245,91.0099 569.578,84.3433 573,77.5C 575.943,69.6724 578.276,61.6724 580,53.5C 581.789,60.5358 583.789,67.5358 586,74.5C 590.123,82.4111 593.956,90.4111 597.5,98.5C 595.61,98.7035 594.11,98.0368 593,96.5C 588.806,89.4455 585.139,82.1122 582,74.5C 581.167,137.169 581.333,199.836 582.5,262.5C 584.735,263.752 587.069,264.252 589.5,264C 630.528,222.639 671.861,181.639 713.5,141C 706.204,143.097 698.871,145.43 691.5,148C 689.527,148.495 687.527,148.662 685.5,148.5C 685.5,147.167 685.5,145.833 685.5,144.5C 690.859,143.666 696.193,142.5 701.5,141C 711.072,137.377 720.072,133.044 728.5,128C 719.299,140.758 713.299,154.925 710.5,170.5C 709.167,170.5 707.833,170.5 706.5,170.5C 708.528,161.265 711.028,152.265 714,143.5C 673,184.5 632,225.5 591,266.5C 592.321,269.206 593.154,272.206 593.5,275.5C 593.317,281.701 590.317,285.868 584.5,288C 579.677,288.609 575.01,288.276 570.5,287C 505.333,352.167 440.167,417.333 375,482.5C 374.685,483.908 375.018,485.241 376,486.5C 385.27,497.048 390.103,509.382 390.5,523.5 Z"/></g>
<g><path style="opacity:1" fill="#585858" d="M 577.5,261.5 C 578.833,199.5 578.833,137.5 577.5,75.5C 577.987,74.5266 578.487,73.5266 579,72.5C 579.833,135.836 579.667,199.169 578.5,262.5C 577.893,262.376 577.56,262.043 577.5,261.5 Z"/></g>
<g><path style="opacity:1" fill="#322127" d="M 740.5,99.5 C 741.962,100.458 743.295,101.624 744.5,103C 743.004,103.507 741.837,103.007 741,101.5C 739.488,102.257 738.154,103.257 737,104.5C 737.112,102.203 738.278,100.536 740.5,99.5 Z"/></g>
<g><path style="opacity:1" fill="#2f252b" d="M 741.5,113.5 C 739.825,116.507 739.159,119.84 739.5,123.5C 738.352,122.105 737.352,122.272 736.5,124C 734.5,124.667 732.5,124.667 730.5,124C 729.663,122.989 729.33,121.822 729.5,120.5C 730.978,120.238 732.311,120.571 733.5,121.5C 732.106,122.687 732.273,123.354 734,123.5C 734.772,123.355 735.439,123.022 736,122.5C 738.053,118.414 738.887,114.08 738.5,109.5C 735.386,110.091 732.886,111.758 731,114.5C 732.465,108.421 735.965,107.088 741.5,110.5C 745.887,107.169 748.22,108.169 748.5,113.5C 747.5,113.5 746.5,113.5 745.5,113.5C 745.906,111.891 745.906,110.557 745.5,109.5C 743.625,110.409 742.292,111.743 741.5,113.5 Z"/></g>
<g><path style="opacity:1" fill="#9a9a9f" d="M 279.5,112.5 C 286.344,111.181 293.344,111.181 300.5,112.5C 300.376,113.107 300.043,113.44 299.5,113.5C 293.021,112.509 286.354,112.176 279.5,112.5 Z"/></g>
<g><path style="opacity:1" fill="#20151a" d="M 279.5,112.5 C 286.354,112.176 293.021,112.509 299.5,113.5C 292.535,121.8 285.202,129.8 277.5,137.5C 276.957,137.56 276.624,137.893 276.5,138.5C 279.98,139.806 283.313,139.806 286.5,138.5C 289.669,137.998 292.002,136.331 293.5,133.5C 294.167,132.833 294.833,132.167 295.5,131.5C 294.833,134.5 294.167,137.5 293.5,140.5C 286.137,140.831 278.803,140.497 271.5,139.5C 279.683,131.151 287.683,122.651 295.5,114C 289.877,112.724 284.71,113.557 280,116.5C 279.529,118.246 278.862,119.913 278,121.5C 277.424,118.228 277.924,115.228 279.5,112.5 Z"/></g>
<g><path style="opacity:1" fill="#4a537c" d="M 741.5,113.5 C 740.949,116.807 740.616,120.14 740.5,123.5C 744.17,123.673 746.67,122.007 748,118.5C 747.508,124.16 744.675,125.827 739.5,123.5C 739.159,119.84 739.825,116.507 741.5,113.5 Z"/></g>
<g><path style="opacity:1" fill="#b27038" d="M 295.5,131.5 C 294.833,132.167 294.167,132.833 293.5,133.5C 293.312,131.897 293.812,130.563 295,129.5C 295.464,130.094 295.631,130.761 295.5,131.5 Z"/></g>
<g><path style="opacity:1" fill="#757779" d="M 277.5,137.5 C 280.287,138.477 283.287,138.81 286.5,138.5C 283.313,139.806 279.98,139.806 276.5,138.5C 276.624,137.893 276.957,137.56 277.5,137.5 Z"/></g>
<g><path style="opacity:1" fill="#322127" d="M 420.5,138.5 C 421.962,139.458 423.295,140.624 424.5,142C 423.004,142.507 421.837,142.007 421,140.5C 419.488,141.257 418.154,142.257 417,143.5C 417.112,141.203 418.278,139.536 420.5,138.5 Z"/></g>
<g><path style="opacity:1" fill="#858585" d="M 328.5,279.5 C 328.832,235.33 328.499,191.33 327.5,147.5C 327.987,146.527 328.487,145.527 329,144.5C 329.831,189.669 329.665,234.669 328.5,279.5 Z"/></g>
<g><path style="opacity:1" fill="#dedede" d="M 333.5,149.5 C 332.501,254.332 332.167,359.332 332.5,464.5C 334.099,464.232 335.432,464.566 336.5,465.5C 334.833,465.5 333.167,465.5 331.5,465.5C 331.333,358.499 331.5,251.499 332,144.5C 332.608,146.154 333.108,147.821 333.5,149.5 Z"/></g>
<g><path style="opacity:1" fill="#2e1b20" d="M 420.5,162.5 C 414.158,164.665 411.658,162.332 413,155.5C 415.26,153.47 415.76,151.137 414.5,148.5C 412.473,149.693 410.973,151.36 410,153.5C 409.983,149.188 412.15,147.355 416.5,148C 417.059,148.725 417.392,149.558 417.5,150.5C 416.191,154.4 415.524,158.4 415.5,162.5C 417.167,162.5 418.833,162.5 420.5,162.5 Z"/></g>
<g><path style="opacity:1" fill="#ca8b48" d="M 423.5,156.5 C 423.771,158.38 423.104,159.713 421.5,160.5C 421.66,158.847 422.326,157.514 423.5,156.5 Z"/></g>
<g><path style="opacity:1" fill="#231922" d="M 420.5,162.5 C 420.833,161.833 421.167,161.167 421.5,160.5C 423.104,159.713 423.771,158.38 423.5,156.5C 424.265,153.904 424.599,151.237 424.5,148.5C 425.5,148.5 426.5,148.5 427.5,148.5C 426.533,154.64 425.033,160.64 423,166.5C 419.95,170.13 416.117,171.297 411.5,170C 409.912,166.425 410.912,165.258 414.5,166.5C 412.197,169.402 413.197,170.236 417.5,169C 418.667,167.833 419.833,166.667 421,165.5C 421.74,164.251 421.573,163.251 420.5,162.5 Z"/></g>
<g><path style="opacity:1" fill="#322229" d="M 537.5,169.5 C 538.94,168.054 539.607,166.221 539.5,164C 539.486,162.615 539.152,161.449 538.5,160.5C 535.267,159.156 532.767,160.156 531,163.5C 529.956,169.676 528.289,175.676 526,181.5C 524.658,182.902 523.824,182.569 523.5,180.5C 524.824,175.536 525.991,170.536 527,165.5C 530.589,158.188 535.589,156.855 542,161.5C 543.064,166.878 541.231,171.044 536.5,174C 534.5,174.667 532.5,174.667 530.5,174C 534.144,174.336 536.477,172.836 537.5,169.5 Z"/></g>
<g><path style="opacity:1" fill="#d58d46" d="M 538.5,160.5 C 539.152,161.449 539.486,162.615 539.5,164C 539.607,166.221 538.94,168.054 537.5,169.5C 538.159,166.545 538.492,163.545 538.5,160.5 Z"/></g>
<g><path style="opacity:1" fill="#282828" d="M 445.5,258.5 C 447.167,258.5 448.833,258.5 450.5,258.5C 450.5,259.5 450.5,260.5 450.5,261.5C 448.833,261.5 447.167,261.5 445.5,261.5C 445.5,260.5 445.5,259.5 445.5,258.5 Z"/></g>
<g><path style="opacity:1" fill="#1b1b1b" d="M 463.5,257.5 C 464.833,257.5 466.167,257.5 467.5,257.5C 467.5,258.5 467.5,259.5 467.5,260.5C 466.167,260.5 464.833,260.5 463.5,260.5C 463.5,259.5 463.5,258.5 463.5,257.5 Z"/></g>
<g><path style="opacity:1" fill="#000000" d="M 498.5,258.5 C 499.978,258.238 501.311,258.571 502.5,259.5C 501.833,259.833 501.167,260.167 500.5,260.5C 499.287,260.253 498.62,259.586 498.5,258.5 Z"/></g>
<g><path style="opacity:1" fill="#4b4b4b" d="M 428.5,259.5 C 430.167,259.5 431.833,259.5 433.5,259.5C 433.5,260.5 433.5,261.5 433.5,262.5C 431.833,262.5 430.167,262.5 428.5,262.5C 428.5,261.5 428.5,260.5 428.5,259.5 Z"/></g>
<g><path style="opacity:1" fill="#3a3a3a" d="M 480.5,257.5 C 482.167,257.5 483.833,257.5 485.5,257.5C 485.5,258.5 485.5,259.5 485.5,260.5C 483.833,260.5 482.167,260.5 480.5,260.5C 480.5,259.5 480.5,258.5 480.5,257.5 Z"/></g>
<g><path style="opacity:1" fill="#292929" d="M 515.5,259.5 C 517.167,259.5 518.833,259.5 520.5,259.5C 520.5,260.5 520.5,261.5 520.5,262.5C 518.833,262.5 517.167,262.5 515.5,262.5C 515.5,261.5 515.5,260.5 515.5,259.5 Z"/></g>
<g><path style="opacity:1" fill="#1e1e1e" d="M 411.5,261.5 C 412.833,261.5 414.167,261.5 415.5,261.5C 415.5,262.5 415.5,263.5 415.5,264.5C 414.167,264.5 412.833,264.5 411.5,264.5C 411.5,263.5 411.5,262.5 411.5,261.5 Z"/></g>
<g><path style="opacity:1" fill="#474747" d="M 532.5,261.5 C 534.167,261.5 535.833,261.5 537.5,261.5C 537.5,262.5 537.5,263.5 537.5,264.5C 535.833,264.5 534.167,264.5 532.5,264.5C 532.5,263.5 532.5,262.5 532.5,261.5 Z"/></g>
<g><path style="opacity:1" fill="#0c0c0c" d="M 394.5,264.5 C 399.579,264.782 399.746,265.782 395,267.5C 394.517,266.552 394.351,265.552 394.5,264.5 Z"/></g>
<g><path style="opacity:1" fill="#2e2e2e" d="M 549.5,264.5 C 551.167,264.5 552.833,264.5 554.5,264.5C 554.5,265.5 554.5,266.5 554.5,267.5C 551.966,267.741 550.3,266.741 549.5,264.5 Z"/></g>
<g><path style="opacity:1" fill="#1b1b1b" d="M 377.5,267.5 C 378.978,267.238 380.311,267.571 381.5,268.5C 380.68,270.111 379.346,270.778 377.5,270.5C 377.5,269.5 377.5,268.5 377.5,267.5 Z"/></g>
<g><path style="opacity:1" fill="#030303" d="M 360.5,271.5 C 361.978,271.238 363.311,271.571 364.5,272.5C 363.833,272.833 363.167,273.167 362.5,273.5C 361.287,273.253 360.62,272.586 360.5,271.5 Z"/></g>
<g><path style="opacity:1" fill="#0e0e0e" d="M 343.5,275.5 C 348.579,275.782 348.746,276.782 344,278.5C 343.517,277.552 343.351,276.552 343.5,275.5 Z"/></g>
<g><path style="opacity:1" fill="#161616" d="M 600.5,277.5 C 605.639,278.941 605.639,279.941 600.5,280.5C 600.5,279.5 600.5,278.5 600.5,277.5 Z"/></g>
<g><path style="opacity:1" fill="#868686" d="M 326.5,282.5 C 327.5,282.5 328.5,282.5 329.5,282.5C 329.5,343.5 329.5,404.5 329.5,465.5C 327.833,465.5 326.167,465.5 324.5,465.5C 325.568,464.566 326.901,464.232 328.5,464.5C 329.157,403.618 328.49,342.952 326.5,282.5 Z"/></g>
<g><path style="opacity:1" fill="#0d0d0d" d="M 616.5,284.5 C 619.462,284.117 620.462,285.117 619.5,287.5C 617.787,287.121 616.787,286.121 616.5,284.5 Z"/></g>
<g><path style="opacity:1" fill="#2d2d2d" d="M 312.5,284.5 C 314.048,284.821 314.715,285.821 314.5,287.5C 312.799,287.966 311.299,287.966 310,287.5C 309.833,287.167 309.667,286.833 309.5,286.5C 310.602,285.824 311.602,285.158 312.5,284.5 Z"/></g>
<g><path style="opacity:1" fill="#151515" d="M 294.5,290.5 C 296.355,290.272 297.188,290.939 297,292.5C 294.192,293.86 293.359,293.193 294.5,290.5 Z"/></g>
<g><path style="opacity:1" fill="#232323" d="M 632.5,291.5 C 635.924,291.698 636.758,293.032 635,295.5C 632.423,294.835 631.59,293.501 632.5,291.5 Z"/></g>
<g><path style="opacity:1" fill="#101010" d="M 279.5,296.5 C 282.028,297.518 281.861,298.518 279,299.5C 278.5,299.167 278,298.833 277.5,298.5C 278.243,297.818 278.909,297.151 279.5,296.5 Z"/></g>
<g><path style="opacity:1" fill="#232323" d="M 647.5,300.5 C 650.924,300.698 651.758,302.032 650,304.5C 647.423,303.835 646.59,302.501 647.5,300.5 Z"/></g>
<g><path style="opacity:1" fill="#0e0e0e" d="M 262.5,303.5 C 266.339,304.05 266.339,305.05 262.5,306.5C 261.438,305.575 261.438,304.575 262.5,303.5 Z"/></g>
<g><path style="opacity:1" fill="#161616" d="M 246.5,310.5 C 248.355,310.272 249.188,310.939 249,312.5C 246.192,313.86 245.359,313.193 246.5,310.5 Z"/></g>
<g><path style="opacity:1" fill="#0a0a0a" d="M 661.5,310.5 C 664.564,310.981 665.398,312.314 664,314.5C 662.519,313.529 661.685,312.196 661.5,310.5 Z"/></g>
<g><path style="opacity:1" fill="#111111" d="M 232.5,317.5 C 233.71,319.176 233.21,320.51 231,321.5C 230.5,321 230,320.5 229.5,320C 230.571,319.148 231.571,318.315 232.5,317.5 Z"/></g>
<g><path style="opacity:1" fill="#242424" d="M 674.5,321.5 C 676.384,321.712 677.717,322.712 678.5,324.5C 675.581,325.932 674.248,324.932 674.5,321.5 Z"/></g>
<g><path style="opacity:1" fill="#232323" d="M 216.5,325.5 C 219.013,327.013 218.68,328.346 215.5,329.5C 215.167,329 214.833,328.5 214.5,328C 215.056,326.989 215.722,326.156 216.5,325.5 Z"/></g>
<g><path style="opacity:1" fill="#5b5756" d="M 572.5,335.5 C 571.167,334.167 569.833,334.167 568.5,335.5C 568.167,335.5 567.833,335.5 567.5,335.5C 566.325,335.719 565.325,335.386 564.5,334.5C 568.5,333.167 572.5,333.167 576.5,334.5C 575.311,335.429 573.978,335.762 572.5,335.5 Z"/></g>
<g><path style="opacity:1" fill="#1e1318" d="M 642.5,333.5 C 644.781,333.077 646.448,333.744 647.5,335.5C 646.076,337.515 645.41,339.848 645.5,342.5C 643.421,347.169 642.421,352.169 642.5,357.5C 643.306,358.779 641.639,358.779 637.5,357.5C 640.941,353.309 641.941,348.642 640.5,343.5C 641.492,343.672 642.158,343.338 642.5,342.5C 644.918,339.448 644.918,336.448 642.5,333.5 Z"/></g>
<g><path style="opacity:1" fill="#1a1a1a" d="M 200.5,334.5 C 202.355,334.272 203.188,334.939 203,336.5C 200.192,337.86 199.359,337.193 200.5,334.5 Z"/></g>
<g><path style="opacity:1" fill="#17131a" d="M 572.5,335.5 C 571.833,335.5 571.5,335.833 571.5,336.5C 570.076,338.515 569.41,340.848 569.5,343.5C 569.435,346.428 568.768,349.095 567.5,351.5C 566.539,353.265 566.205,355.265 566.5,357.5C 569.385,357.806 572.052,357.473 574.5,356.5C 577.365,355.809 579.532,354.142 581,351.5C 581.067,353.735 580.567,355.902 579.5,358C 572.833,358.667 566.167,358.667 559.5,358C 561.848,357.89 563.348,356.723 564,354.5C 565.154,350.553 565.987,346.553 566.5,342.5C 567.924,340.485 568.59,338.152 568.5,335.5C 569.833,334.167 571.167,334.167 572.5,335.5 Z"/></g>
<g><path style="opacity:1" fill="#aa7545" d="M 642.5,333.5 C 644.918,336.448 644.918,339.448 642.5,342.5C 643.668,339.073 643.668,336.073 642.5,333.5 Z"/></g>
<g><path style="opacity:1" fill="#161616" d="M 686.5,334.5 C 688.359,334.461 689.692,335.294 690.5,337C 688.314,338.398 686.981,337.564 686.5,334.5 Z"/></g>
<g><path style="opacity:1" fill="#a65e26" d="M 567.5,335.5 C 567.833,335.5 568.167,335.5 568.5,335.5C 568.59,338.152 567.924,340.485 566.5,342.5C 566.674,340.139 567.007,337.806 567.5,335.5 Z"/></g>
<g><path style="opacity:1" fill="#5e9ad7" d="M 647.5,335.5 C 647.59,338.152 646.924,340.485 645.5,342.5C 645.41,339.848 646.076,337.515 647.5,335.5 Z"/></g>
<g><path style="opacity:1" fill="#366db4" d="M 571.5,336.5 C 571.59,339.152 570.924,341.485 569.5,343.5C 569.41,340.848 570.076,338.515 571.5,336.5 Z"/></g>
<g><path style="opacity:1" fill="#202020" d="M 186.5,343.5 C 188.885,344.867 188.552,346.201 185.5,347.5C 185.167,347 184.833,346.5 184.5,346C 185.056,344.989 185.722,344.156 186.5,343.5 Z"/></g>
<g><path style="opacity:1" fill="#392830" d="M 679.5,344.5 C 677.546,348.906 676.212,353.572 675.5,358.5C 674.5,358.5 673.5,358.5 672.5,358.5C 672.844,354.456 673.51,350.456 674.5,346.5C 674.333,345.5 674.167,344.5 674,343.5C 672.26,344.716 671.26,346.382 671,348.5C 669.859,345.143 671.025,343.143 674.5,342.5C 676.177,343.187 677.844,343.854 679.5,344.5 Z"/></g>
<g><path style="opacity:1" fill="#ece8e5" d="M 619.5,344.5 C 619.252,348.757 618.252,352.757 616.5,356.5C 609.918,358.679 607.751,356.345 610,349.5C 611.805,344.798 614.972,343.132 619.5,344.5 Z"/></g>
<g><path style="opacity:1" fill="#f4f1eb" d="M 640.5,343.5 C 641.941,348.642 640.941,353.309 637.5,357.5C 635.833,357.5 634.167,357.5 632.5,357.5C 631.702,352.285 633.036,347.785 636.5,344C 637.793,343.51 639.127,343.343 640.5,343.5 Z"/></g>
<g><path style="opacity:1" fill="#efe8e1" d="M 663.5,343.5 C 664.234,344.708 664.567,346.041 664.5,347.5C 661.362,348.681 658.362,348.681 655.5,347.5C 657.073,344.107 659.74,342.774 663.5,343.5 Z"/></g>
<g><path style="opacity:1" fill="#291d26" d="M 679.5,344.5 C 681.011,342.559 683.011,342.059 685.5,343C 686.93,344.88 686.596,346.38 684.5,347.5C 683.269,346.349 683.269,345.183 684.5,344C 682.803,343.616 681.137,343.782 679.5,344.5 Z"/></g>
<g><path style="opacity:1" fill="#141f52" d="M 663.5,343.5 C 664.586,343.62 665.253,344.287 665.5,345.5C 665.457,346.416 665.124,347.083 664.5,347.5C 664.567,346.041 664.234,344.708 663.5,343.5 Z"/></g>
<g><path style="opacity:1" fill="#32272e" d="M 593.5,342.5 C 601.322,342.413 601.322,343.246 593.5,345C 591.963,346.11 591.297,347.61 591.5,349.5C 594.216,349.322 596.883,348.822 599.5,348C 600.227,346.601 600.727,345.101 601,343.5C 601.667,345.167 601.667,346.833 601,348.5C 597.715,350.137 594.215,350.804 590.5,350.5C 590.244,352.792 590.577,354.959 591.5,357C 594.54,357.32 597.54,357.32 600.5,357C 590.821,360.983 586.654,357.816 588,347.5C 589.812,345.7 591.645,344.033 593.5,342.5 Z"/></g>
<g><path style="opacity:1" fill="#1f1415" d="M 663.5,343.5 C 659.74,342.774 657.073,344.107 655.5,347.5C 654.596,348.209 654.263,349.209 654.5,350.5C 653.539,352.265 653.205,354.265 653.5,356.5C 649.967,350.74 651.3,346.24 657.5,343C 659.712,342.211 661.712,342.378 663.5,343.5 Z"/></g>
<g><path style="opacity:1" fill="#2a1e27" d="M 640.5,343.5 C 639.127,343.343 637.793,343.51 636.5,344C 633.036,347.785 631.702,352.285 632.5,357.5C 634.167,357.5 635.833,357.5 637.5,357.5C 635.44,358.811 633.274,358.811 631,357.5C 627.643,347.801 630.809,343.135 640.5,343.5 Z"/></g>
<g><path style="opacity:1" fill="#332121" d="M 619.5,344.5 C 614.972,343.132 611.805,344.798 610,349.5C 607.751,356.345 609.918,358.679 616.5,356.5C 613.161,359.312 609.995,358.979 607,355.5C 605.843,349.649 608.009,345.482 613.5,343C 615.989,342.059 617.989,342.559 619.5,344.5 Z"/></g>
<g><path style="opacity:1" fill="#161616" d="M 697.5,348.5 C 700.569,348.963 701.069,350.296 699,352.5C 697.812,351.437 697.312,350.103 697.5,348.5 Z"/></g>
<g><path style="opacity:1" fill="#5f6066" d="M 655.5,347.5 C 658.362,348.681 661.362,348.681 664.5,347.5C 663.942,348.79 662.942,349.623 661.5,350C 659.19,350.497 656.857,350.663 654.5,350.5C 654.263,349.209 654.596,348.209 655.5,347.5 Z"/></g>
<g><path style="opacity:1" fill="#2f222c" d="M 616.5,356.5 C 618.252,352.757 619.252,348.757 619.5,344.5C 620.824,343.15 621.824,343.317 622.5,345C 621.105,349.163 620.772,353.329 621.5,357.5C 622.167,356.833 622.833,356.167 623.5,355.5C 624.571,357.624 623.737,358.624 621,358.5C 619.167,358.481 617.667,357.815 616.5,356.5 Z"/></g>
<g><path style="opacity:1" fill="#1a1a1a" d="M 172.5,352.5 C 173.867,354.093 173.534,355.426 171.5,356.5C 170.692,356.192 170.025,355.692 169.5,355C 170.571,354.148 171.571,353.315 172.5,352.5 Z"/></g>
<g><path style="opacity:1" fill="#265da5" d="M 654.5,350.5 C 654.298,352.95 654.631,355.283 655.5,357.5C 654.833,357.5 654.167,357.5 653.5,357.5C 653.5,357.167 653.5,356.833 653.5,356.5C 653.205,354.265 653.539,352.265 654.5,350.5 Z"/></g>
<g><path style="opacity:1" fill="#8893a6" d="M 567.5,351.5 C 567.5,353.167 567.5,354.833 567.5,356.5C 569.833,356.5 572.167,356.5 574.5,356.5C 572.052,357.473 569.385,357.806 566.5,357.5C 566.205,355.265 566.539,353.265 567.5,351.5 Z"/></g>
<g><path style="opacity:1" fill="#373441" d="M 653.5,357.5 C 654.167,357.5 654.833,357.5 655.5,357.5C 659.422,357.931 662.922,356.931 666,354.5C 666.167,354.833 666.333,355.167 666.5,355.5C 662.42,358.505 658.086,359.172 653.5,357.5 Z"/></g>
<g><path style="opacity:1" fill="#262626" d="M 157.5,362.5 C 160.101,363.922 159.934,365.256 157,366.5C 156.5,366.167 156,365.833 155.5,365.5C 156.193,364.482 156.859,363.482 157.5,362.5 Z"/></g>
<g><path style="opacity:1" fill="#181818" d="M 705.5,364.5 C 707.093,363.133 708.426,363.466 709.5,365.5C 709.192,366.308 708.692,366.975 708,367.5C 707.148,366.429 706.315,365.429 705.5,364.5 Z"/></g>
<g><path style="opacity:1" fill="#1c1c1c" d="M 143.5,373.5 C 147.271,374.676 147.104,376.01 143,377.5C 141.413,376.154 141.58,374.821 143.5,373.5 Z"/></g>
<g><path style="opacity:1" fill="#2f2f2f" d="M 713.5,378.5 C 715.741,379.3 716.741,380.966 716.5,383.5C 715.5,383.5 714.5,383.5 713.5,383.5C 712.929,381.64 712.929,379.973 713.5,378.5 Z"/></g>
<g><path style="opacity:1" fill="#1d1d1d" d="M 130.5,384.5 C 132.885,385.867 132.552,387.201 129.5,388.5C 129.167,388 128.833,387.5 128.5,387C 129.056,385.989 129.722,385.156 130.5,384.5 Z"/></g>
<g><path style="opacity:1" fill="#232323" d="M 117.5,395.5 C 120.052,397.163 119.886,398.83 117,400.5C 115.198,398.727 115.365,397.06 117.5,395.5 Z"/></g>
<g><path style="opacity:1" fill="#0b0b0b" d="M 718.5,395.5 C 719.586,395.62 720.253,396.287 720.5,397.5C 720.167,398.167 719.833,398.833 719.5,399.5C 718.571,398.311 718.238,396.978 718.5,395.5 Z"/></g>
<g><path style="opacity:1" fill="#343434" d="M 105.5,407.5 C 106.478,407.811 107.145,408.478 107.5,409.5C 106.5,410.5 105.5,411.5 104.5,412.5C 103.692,412.192 103.025,411.692 102.5,411C 103.71,409.961 104.71,408.794 105.5,407.5 Z"/></g>
<g><path style="opacity:1" fill="#222222" d="M 720.5,412.5 C 721.5,412.5 722.5,412.5 723.5,412.5C 723.5,413.833 723.5,415.167 723.5,416.5C 722.5,416.5 721.5,416.5 720.5,416.5C 720.5,415.167 720.5,413.833 720.5,412.5 Z"/></g>
<g><path style="opacity:1" fill="#151515" d="M 92.5,420.5 C 96.3079,421.439 96.3079,422.772 92.5,424.5C 91.7084,423.3 91.7084,421.967 92.5,420.5 Z"/></g>
<g><path style="opacity:1" fill="#2d2d2d" d="M 721.5,429.5 C 722.5,429.5 723.5,429.5 724.5,429.5C 724.5,431.167 724.5,432.833 724.5,434.5C 723.5,434.5 722.5,434.5 721.5,434.5C 721.5,432.833 721.5,431.167 721.5,429.5 Z"/></g>
<g><path style="opacity:1" fill="#202020" d="M 81.5,433.5 C 84.1009,434.922 83.9342,436.256 81,437.5C 80.5,437.333 80,437.167 79.5,437C 80.8228,436.184 81.4894,435.017 81.5,433.5 Z"/></g>
<g><path style="opacity:1" fill="#030303" d="M 720.5,447.5 C 721.586,447.62 722.253,448.287 722.5,449.5C 722.167,450.167 721.833,450.833 721.5,451.5C 720.571,450.311 720.238,448.978 720.5,447.5 Z"/></g>
<g><path style="opacity:1" fill="#222222" d="M 70.5,447.5 C 73.9663,448.372 74.133,450.039 71,452.5C 69.3721,451.038 69.2054,449.372 70.5,447.5 Z"/></g>
<g><path style="opacity:1" fill="#1d1d1d" d="M 61.5,461.5 C 64.0524,463.163 63.8857,464.83 61,466.5C 59.6974,464.947 59.864,463.28 61.5,461.5 Z"/></g>
<g><path style="opacity:1" fill="#040404" d="M 717.5,464.5 C 718.586,464.62 719.253,465.287 719.5,466.5C 719.167,467.167 718.833,467.833 718.5,468.5C 717.571,467.311 717.238,465.978 717.5,464.5 Z"/></g>
<g><path style="opacity:1" fill="#498fe0" d="M 321.5,467.5 C 350.461,465.721 371.294,477.721 384,503.5C 392.924,531.388 386.091,554.554 363.5,573C 331.961,590.544 304.795,585.377 282,557.5C 265.232,526.007 270.732,499.174 298.5,477C 305.793,472.679 313.46,469.512 321.5,467.5 Z"/></g>
<g><path style="opacity:1" fill="#252525" d="M 52.5,476.5 C 54.9845,477.964 54.9845,479.631 52.5,481.5C 51.6919,481.192 51.0253,480.692 50.5,480C 51.305,478.887 51.9717,477.721 52.5,476.5 Z"/></g>
<g><path style="opacity:1" fill="#131313" d="M 713.5,481.5 C 716.041,482.623 716.041,483.956 713.5,485.5C 712.374,484.192 712.374,482.858 713.5,481.5 Z"/></g>
<g><path style="opacity:1" fill="#222222" d="M 43.5,492.5 C 47.1276,493.021 47.2943,494.355 44,496.5C 43.5,496.167 43,495.833 42.5,495.5C 43.1272,494.583 43.4606,493.583 43.5,492.5 Z"/></g>
<g><path style="opacity:1" fill="#1f1f1f" d="M 707.5,497.5 C 708.497,497.47 709.164,497.97 709.5,499C 708.858,502.817 707.858,503.15 706.5,500C 706.743,499.098 707.077,498.265 707.5,497.5 Z"/></g>
<g><path style="opacity:1" fill="#232323" d="M 699.5,513.5 C 703.128,514.021 703.294,515.355 700,517.5C 699.5,517.167 699,516.833 698.5,516.5C 699.127,515.583 699.461,514.583 699.5,513.5 Z"/></g>
<g><path style="opacity:1" fill="#9c9c9c" d="M 743.5,522.5 C 744.473,522.987 745.473,523.487 746.5,524C 627.666,524.833 508.999,524.666 390.5,523.5C 508.335,523.833 626.001,523.5 743.5,522.5 Z"/></g>
<g><path style="opacity:1" fill="#c7c7c7" d="M 390.5,527.5 C 508.666,526.334 626.999,526.167 745.5,527C 744.473,527.513 743.473,528.013 742.5,528.5C 625.335,527.5 508.001,527.167 390.5,527.5 Z"/></g>
<g><path style="opacity:1" fill="#232323" d="M 691.5,528.5 C 694.966,529.372 695.133,531.039 692,533.5C 690.372,532.038 690.205,530.372 691.5,528.5 Z"/></g>
<g><path style="opacity:1" fill="#171717" d="M 682.5,543.5 C 685.041,544.623 685.041,545.956 682.5,547.5C 681.374,546.192 681.374,544.858 682.5,543.5 Z"/></g>
<g><path style="opacity:1" fill="#12101b" d="M 786.5,557.5 C 786.557,558.609 786.89,559.609 787.5,560.5C 786.358,564.071 785.691,567.738 785.5,571.5C 785.11,572.795 782.443,572.961 777.5,572C 780.525,571.846 782.191,570.346 782.5,567.5C 784.312,565.287 784.645,562.953 783.5,560.5C 781.971,555.75 780.137,551.084 778,546.5C 776.933,545.809 775.766,545.309 774.5,545C 777.833,544.333 781.167,544.333 784.5,545C 783.572,545.388 782.905,546.055 782.5,547C 783.938,550.485 785.272,553.985 786.5,557.5 Z"/></g>
<g><path style="opacity:1" fill="#1c141c" d="M 799.5,548.5 C 799.167,548.5 798.833,548.5 798.5,548.5C 798.67,547.178 798.337,546.011 797.5,545C 800.167,544.333 802.833,544.333 805.5,545C 803.09,545.6 801.09,546.766 799.5,548.5 Z"/></g>
<g><path style="opacity:1" fill="#4e4568" d="M 798.5,548.5 C 798.833,548.5 799.167,548.5 799.5,548.5C 795.833,552.833 791.833,556.833 787.5,560.5C 786.89,559.609 786.557,558.609 786.5,557.5C 787.117,557.611 787.617,557.944 788,558.5C 791.369,554.963 794.869,551.629 798.5,548.5 Z"/></g>
<g><path style="opacity:1" fill="#1e1e1e" d="M 672.5,557.5 C 675.041,558.623 675.041,559.956 672.5,561.5C 670.206,560.375 670.206,559.041 672.5,557.5 Z"/></g>
<g><path style="opacity:1" fill="#632910" d="M 783.5,560.5 C 784.645,562.953 784.312,565.287 782.5,567.5C 782.674,565.139 783.007,562.806 783.5,560.5 Z"/></g>
<g><path style="opacity:1" fill="#101010" d="M 661.5,571.5 C 663.028,571.517 663.528,572.184 663,573.5C 659.189,574.966 658.689,574.3 661.5,571.5 Z"/></g>
<g><path style="opacity:1" fill="#434145" d="M 361.5,605.5 C 359.833,604.167 358.167,604.167 356.5,605.5C 355.624,605.631 354.957,605.298 354.5,604.5C 361.468,603.503 368.468,603.17 375.5,603.5C 375.665,606.518 375.498,609.518 375,612.5C 374.764,610.236 374.264,608.069 373.5,606C 369.514,605.501 365.514,605.334 361.5,605.5 Z"/></g>
<g><path style="opacity:1" fill="#2e1d22" d="M 448.5,613.5 C 444.036,617.401 442.036,622.401 442.5,628.5C 441.5,628.5 440.5,628.5 439.5,628.5C 440.533,621.033 442.2,613.7 444.5,606.5C 443.833,605.833 443.167,605.167 442.5,604.5C 444.045,603.548 445.712,603.215 447.5,603.5C 447.745,606.865 447.078,610.032 445.5,613C 445.667,613.5 445.833,614 446,614.5C 446.671,613.748 447.504,613.414 448.5,613.5 Z"/></g>
<g><path style="opacity:1" fill="#181217" d="M 356.5,605.5 C 358.167,604.167 359.833,604.167 361.5,605.5C 360.833,605.5 360.5,605.833 360.5,606.5C 359.076,608.515 358.41,610.848 358.5,613.5C 360.948,614.473 363.615,614.806 366.5,614.5C 367.584,612.294 367.751,613.627 367,618.5C 366.667,619.167 366.333,619.833 366,620.5C 365.51,619.207 365.343,617.873 365.5,616.5C 362.833,616.5 360.167,616.5 357.5,616.5C 357.784,618.415 357.451,620.081 356.5,621.5C 355.539,623.265 355.205,625.265 355.5,627.5C 359.042,627.813 362.375,627.479 365.5,626.5C 367.947,626.385 369.947,625.385 371.5,623.5C 371.5,624.167 371.5,624.833 371.5,625.5C 371.196,626.15 370.863,626.817 370.5,627.5C 363.189,628.665 355.856,628.831 348.5,628C 350.848,627.89 352.348,626.723 353,624.5C 354.154,620.553 354.987,616.553 355.5,612.5C 357.312,610.287 357.645,607.953 356.5,605.5 Z"/></g>
<g><path style="opacity:1" fill="#a75e26" d="M 356.5,605.5 C 357.645,607.953 357.312,610.287 355.5,612.5C 355.674,610.139 356.007,607.806 356.5,605.5 Z"/></g>
<g><path style="opacity:1" fill="#376eb6" d="M 360.5,606.5 C 360.59,609.152 359.924,611.485 358.5,613.5C 358.41,610.848 359.076,608.515 360.5,606.5 Z"/></g>
<g><path style="opacity:1" fill="#2e1f27" d="M 448.5,613.5 C 450.817,612.058 452.984,612.392 455,614.5C 455.591,618.291 455.091,621.958 453.5,625.5C 453.833,626.167 454.167,626.833 454.5,627.5C 455.99,625.874 457.49,624.208 459,622.5C 458.824,627.33 456.324,629.164 451.5,628C 450.919,627.107 450.585,626.107 450.5,625C 452.048,621.335 452.715,617.501 452.5,613.5C 451.167,613.5 449.833,613.5 448.5,613.5 Z"/></g>
<g><path style="opacity:1" fill="#2e2127" d="M 404.5,612.5 C 406.827,612.247 408.827,612.914 410.5,614.5C 413.718,611.715 416.718,611.882 419.5,615C 418.968,617.02 417.635,617.853 415.5,617.5C 415.33,616.178 415.663,615.011 416.5,614C 414.212,613.582 412.212,614.249 410.5,616C 409.617,619.45 408.784,622.95 408,626.5C 407.29,627.973 406.124,628.64 404.5,628.5C 405.48,624.525 406.48,620.525 407.5,616.5C 406.923,614.346 405.923,613.012 404.5,612.5 Z"/></g>
<g><path style="opacity:1" fill="#3a2e38" d="M 424.5,626.5 C 424.993,624.194 425.326,621.861 425.5,619.5C 425.286,617.856 425.62,616.356 426.5,615C 421.406,613.542 421.739,612.709 427.5,612.5C 427.03,609.654 427.863,607.321 430,605.5C 431.788,607.333 431.954,609.333 430.5,611.5C 435.706,613.402 435.373,614.402 429.5,614.5C 428.673,618.807 428.007,623.14 427.5,627.5C 430.642,627.201 432.809,625.534 434,622.5C 433.652,627.818 430.818,629.652 425.5,628C 424.944,627.617 424.611,627.117 424.5,626.5 Z"/></g>
<g><path style="opacity:1" fill="#5b4b73" d="M 371.5,625.5 C 371.5,624.833 371.5,624.167 371.5,623.5C 371.533,620.903 372.533,619.903 374.5,620.5C 373.725,622.396 372.725,624.063 371.5,625.5 Z"/></g>
<g><path style="opacity:1" fill="#2a1b20" d="M 391.5,613.5 C 393.167,613.5 394.833,613.5 396.5,613.5C 395.185,618.094 394.185,622.761 393.5,627.5C 394.791,627.737 395.791,627.404 396.5,626.5C 396.833,626.5 397.167,626.5 397.5,626.5C 395.56,629.041 393.393,629.041 391,626.5C 387.339,629.406 384.006,629.073 381,625.5C 380.333,623.167 380.333,620.833 381,618.5C 382.833,616.667 384.667,614.833 386.5,613C 388.387,612.22 390.054,612.387 391.5,613.5 Z"/></g>
<g><path style="opacity:1" fill="#eff2f0" d="M 391.5,613.5 C 392.862,618.523 391.862,623.023 388.5,627C 384.518,628.187 382.851,626.687 383.5,622.5C 383.415,616.924 386.082,613.924 391.5,613.5 Z"/></g>
<g><path style="opacity:1" fill="#c2854f" d="M 397.5,626.5 C 397.167,626.5 396.833,626.5 396.5,626.5C 396.312,624.897 396.812,623.563 398,622.5C 398.195,623.819 398.028,625.153 397.5,626.5 Z"/></g>
<g><path style="opacity:1" fill="#e3aa61" d="M 425.5,619.5 C 425.326,621.861 424.993,624.194 424.5,626.5C 423.355,624.047 423.688,621.713 425.5,619.5 Z"/></g>
<g><path style="opacity:1" fill="#8e97aa" d="M 356.5,621.5 C 356.5,623.167 356.5,624.833 356.5,626.5C 359.5,626.5 362.5,626.5 365.5,626.5C 362.375,627.479 359.042,627.813 355.5,627.5C 355.205,625.265 355.539,623.265 356.5,621.5 Z"/></g>
<g><path style="opacity:1" fill="#1c1621" d="M 87.5,690.5 C 84.9875,693.18 82.6541,696.013 80.5,699C 82.4707,703.108 84.3041,707.275 86,711.5C 86.9025,712.701 88.0692,713.535 89.5,714C 86.1177,714.824 82.7844,714.657 79.5,713.5C 80.311,712.784 80.9777,711.95 81.5,711C 80.7178,707.265 79.0511,704.098 76.5,701.5C 75.2368,696.968 73.4035,692.635 71,688.5C 69.9326,687.809 68.7659,687.309 67.5,687C 72.4431,686.039 75.1098,686.205 75.5,687.5C 76.0084,690.852 77.3418,693.852 79.5,696.5C 81.921,694.066 84.5877,692.066 87.5,690.5 Z"/></g>
<g><path style="opacity:1" fill="#0f0913" d="M 87.5,690.5 C 87.6399,688.876 86.9733,687.71 85.5,687C 88.5,686.333 91.5,686.333 94.5,687C 91.8608,687.653 89.5274,688.82 87.5,690.5 Z"/></g>
<g><path style="opacity:1" fill="#5e86b3" d="M 76.5,701.5 C 74.2343,705.436 71.2343,708.769 67.5,711.5C 67.5,711.167 67.5,710.833 67.5,710.5C 70.1667,707.167 73.1667,704.167 76.5,701.5 Z"/></g>
<g><path style="opacity:1" fill="#201a1c" d="M 67.5,710.5 C 67.5,710.833 67.5,711.167 67.5,711.5C 67.4142,712.496 67.7476,713.329 68.5,714C 65.4459,714.821 62.4459,714.655 59.5,713.5C 62.3246,712.745 64.9913,711.745 67.5,710.5 Z"/></g>
</svg>
