<?xml version="1.0" encoding="UTF-8"?>
<!DOCTYPE svg PUBLIC "-//W3C//DTD SVG 1.1//EN" "http://www.w3.org/Graphics/SVG/1.1/DTD/svg11.dtd">
<svg xmlns="http://www.w3.org/2000/svg" version="1.1" width="1378px" height="1381px" style="shape-rendering:geometricPrecision; text-rendering:geometricPrecision; image-rendering:optimizeQuality; fill-rule:evenodd; clip-rule:evenodd" xmlns:xlink="http://www.w3.org/1999/xlink">
<g><path style="opacity:1" fill="#fefefe" d="M -0.5,-0.5 C 458.833,-0.5 918.167,-0.5 1377.5,-0.5C 1377.5,459.833 1377.5,920.167 1377.5,1380.5C 918.167,1380.5 458.833,1380.5 -0.5,1380.5C -0.5,920.167 -0.5,459.833 -0.5,-0.5 Z"/></g>
<g><path style="opacity:1" fill="#d1a172" d="M 1069.5,56.5 C 1093.02,55.3974 1116.36,56.8974 1139.5,61C 1146.02,62.3966 1152.36,64.3966 1158.5,67C 1145.72,63.71 1132.72,61.0433 1119.5,59C 1101.18,57.3573 1082.84,57.024 1064.5,58C 1066.38,57.8019 1068.05,57.3019 1069.5,56.5 Z"/></g>
<g><path style="opacity:1" fill="#d6ab81" d="M 1052.5,58.5 C 1055.52,58.3354 1058.52,58.502 1061.5,59C 1060.17,59.3333 1058.83,59.6667 1057.5,60C 1044.42,61.8845 1031.42,63.8845 1018.5,66C 1029.82,62.9047 1041.15,60.4047 1052.5,58.5 Z"/></g>
<g><path style="opacity:1" fill="#d1a172" d="M 1168.5,72.5 C 1169.25,71.4265 1170.25,71.2599 1171.5,72C 1176.49,74.1609 1181.16,76.8276 1185.5,80C 1179.95,77.5678 1174.29,75.0678 1168.5,72.5 Z"/></g>
<g><path style="opacity:1" fill="#d1a274" d="M 1012.5,66.5 C 1014.2,66.3398 1015.87,66.5065 1017.5,67C 989.333,74.8342 961.667,83.8342 934.5,94C 960.076,83.31 986.076,74.1433 1012.5,66.5 Z"/></g>
<g><path style="opacity:1" fill="#d0a171" d="M 1200.5,92.5 C 1200.9,91.475 1201.56,91.3083 1202.5,92C 1206.33,95.8333 1210.17,99.6667 1214,103.5C 1214.67,104.167 1214.67,104.833 1214,105.5C 1209.63,100.963 1205.13,96.6299 1200.5,92.5 Z"/></g>
<g><path style="opacity:1" fill="#d5a87c" d="M 916.5,102.5 C 919.734,99.8812 923.4,98.3812 927.5,98C 923.983,100.099 920.316,101.599 916.5,102.5 Z"/></g>
<g><path style="opacity:1" fill="#d5a87d" d="M 916.5,102.5 C 913.225,105.143 909.558,106.643 905.5,107C 908.971,104.928 912.638,103.428 916.5,102.5 Z"/></g>
<g><path style="opacity:1" fill="#544bff" d="M 1202.5,104.5 C 1207.75,105.793 1212.42,108.126 1216.5,111.5C 1211.52,109.674 1206.85,107.341 1202.5,104.5 Z"/></g>
<g><path style="opacity:1" fill="#5d51ff" d="M 1202.5,104.5 C 1166.7,91.1718 1129.7,86.0051 1091.5,89C 1070.97,90.6882 1050.64,93.6882 1030.5,98C 1004.49,104.085 978.824,111.251 953.5,119.5C 995.651,103.213 1039.32,92.7133 1084.5,88C 1121.75,84.2639 1158.08,88.2639 1193.5,100C 1196.82,101.04 1199.82,102.54 1202.5,104.5 Z"/></g>
<g><path style="opacity:1" fill="#4840ff" d="M 1216.5,111.5 C 1217.76,111.461 1218.76,111.961 1219.5,113C 1218,113.585 1217,113.085 1216.5,111.5 Z"/></g>
<g><path style="opacity:1" fill="#4c43ff" d="M 1223.5,115.5 C 1226.37,116.433 1228.7,118.1 1230.5,120.5C 1228.94,120.267 1227.6,119.6 1226.5,118.5C 1225.17,117.833 1224.17,116.833 1223.5,115.5 Z"/></g>
<g><path style="opacity:1" fill="#5d53ff" d="M 953.5,119.5 C 950.2,121.642 946.533,122.975 942.5,123.5C 945.797,121.399 949.463,120.065 953.5,119.5 Z"/></g>
<g><path style="opacity:1" fill="#4740ff" d="M 1230.5,120.5 C 1232.4,120.738 1233.74,121.738 1234.5,123.5C 1232.6,123.262 1231.26,122.262 1230.5,120.5 Z"/></g>
<g><path style="opacity:1" fill="#cf9f6f" d="M 875.5,121.5 C 877.379,121.393 877.712,121.893 876.5,123C 873.281,124.955 869.947,126.288 866.5,127C 869.564,125.141 872.564,123.308 875.5,121.5 Z"/></g>
<g><path style="opacity:1" fill="#574dff" d="M 1234.5,123.5 C 1237.09,124.419 1239.09,126.086 1240.5,128.5C 1237.91,127.581 1235.91,125.914 1234.5,123.5 Z"/></g>
<g><path style="opacity:1" fill="#534bff" d="M 942.5,123.5 C 940.208,125.267 937.542,126.267 934.5,126.5C 936.792,124.733 939.458,123.733 942.5,123.5 Z"/></g>
<g><path style="opacity:1" fill="#4841ff" d="M 934.5,126.5 C 933.22,127.931 931.553,128.598 929.5,128.5C 930.78,127.069 932.447,126.402 934.5,126.5 Z"/></g>
<g><path style="opacity:1" fill="#5149ff" d="M 929.5,128.5 C 928.22,129.931 926.553,130.598 924.5,130.5C 925.78,129.069 927.447,128.402 929.5,128.5 Z"/></g>
<g><path style="opacity:1" fill="#d1a172" d="M 1223.5,115.5 C 1224.17,116.833 1225.17,117.833 1226.5,118.5C 1230.31,126.114 1234.14,133.78 1238,141.5C 1238.67,142.5 1238.67,143.5 1238,144.5C 1233.09,134.003 1227.76,124.003 1222,114.5C 1222.38,115.056 1222.88,115.389 1223.5,115.5 Z"/></g>
<g><path style="opacity:1" fill="#4a43ff" d="M 924.5,130.5 C 923.22,131.931 921.553,132.598 919.5,132.5C 920.78,131.069 922.447,130.402 924.5,130.5 Z"/></g>
<g><path style="opacity:1" fill="#594eff" d="M 1240.5,128.5 C 1245.5,131.5 1249.5,135.5 1252.5,140.5C 1248.17,136.833 1244.17,132.833 1240.5,128.5 Z"/></g>
<g><path style="opacity:1" fill="#4c43ff" d="M 919.5,132.5 C 915.889,134.931 911.889,136.597 907.5,137.5C 911.111,135.069 915.111,133.403 919.5,132.5 Z"/></g>
<g><path style="opacity:1" fill="#1f1f20" d="M 704.5,137.5 C 708.884,137.174 713.217,137.508 717.5,138.5C 713.054,144.449 708.054,149.949 702.5,155C 708.431,156.925 712.598,155.092 715,149.5C 714.563,151.757 714.063,154.09 713.5,156.5C 708.821,156.666 704.155,156.499 699.5,156C 704.5,150.333 709.5,144.667 714.5,139C 709.525,137.355 706.025,138.855 704,143.5C 703.51,141.455 703.677,139.455 704.5,137.5 Z"/></g>
<g><path style="opacity:1" fill="#574dff" d="M 907.5,137.5 C 902.693,140.9 897.36,143.234 891.5,144.5C 896.437,141.404 901.77,139.071 907.5,137.5 Z"/></g>
<g><path style="opacity:1" fill="#5149ff" d="M 1252.5,140.5 C 1254.91,141.911 1256.58,143.911 1257.5,146.5C 1255.09,145.089 1253.42,143.089 1252.5,140.5 Z"/></g>
<g><path style="opacity:1" fill="#d1a172" d="M 844.5,138.5 C 846.379,138.393 846.712,138.893 845.5,140C 842.107,142.534 838.441,144.201 834.5,145C 838.009,142.97 841.342,140.804 844.5,138.5 Z"/></g>
<g><path style="opacity:1" fill="#4d42ff" d="M 891.5,144.5 C 887.584,147.29 883.251,149.29 878.5,150.5C 882.416,147.71 886.749,145.71 891.5,144.5 Z"/></g>
<g><path style="opacity:1" fill="#4b45ff" d="M 1257.5,146.5 C 1259.26,147.262 1260.26,148.596 1260.5,150.5C 1258.74,149.738 1257.74,148.404 1257.5,146.5 Z"/></g>
<g><path style="opacity:1" fill="#d1a172" d="M 811.5,159.5 C 815.3,155.938 819.634,153.438 824.5,152C 820.438,155.029 816.105,157.529 811.5,159.5 Z"/></g>
<g><path style="opacity:1" fill="#d1a172" d="M 811.5,159.5 C 808.35,162.579 804.683,164.913 800.5,166.5C 803.65,163.421 807.317,161.087 811.5,159.5 Z"/></g>
<g><path style="opacity:1" fill="#4f45ff" d="M 878.5,150.5 C 862.846,159.161 846.846,166.994 830.5,174C 846.134,165.35 862.134,157.516 878.5,150.5 Z"/></g>
<g><path style="opacity:1" fill="#534aff" d="M 1260.5,150.5 C 1268.21,159.236 1273.87,169.236 1277.5,180.5C 1272.34,170.183 1266.68,160.183 1260.5,150.5 Z"/></g>
<g><path style="opacity:1" fill="#d0a172" d="M 800.5,166.5 C 790.059,174.708 779.059,181.875 767.5,188C 778.131,180.191 789.131,173.024 800.5,166.5 Z"/></g>
<g><path style="opacity:1" fill="#594bff" d="M 1277.5,180.5 C 1286.39,200.099 1291.56,220.766 1293,242.5C 1293.67,256.833 1293.67,271.167 1293,285.5C 1292.82,289.356 1292.32,293.023 1291.5,296.5C 1295.52,256.722 1290.85,218.055 1277.5,180.5 Z"/></g>
<g><path style="opacity:1" fill="#544aff" d="M 806.5,187.5 C 813.163,182.336 820.496,178.502 828.5,176C 821.271,180.114 813.937,183.947 806.5,187.5 Z"/></g>
<g><path style="opacity:1" fill="#5348ff" d="M 806.5,187.5 C 804.664,189.588 802.331,190.921 799.5,191.5C 801.336,189.412 803.669,188.079 806.5,187.5 Z"/></g>
<g><path style="opacity:1" fill="#4d42ff" d="M 799.5,191.5 C 797.664,193.588 795.331,194.921 792.5,195.5C 794.336,193.412 796.669,192.079 799.5,191.5 Z"/></g>
<g><path style="opacity:1" fill="#4e44ff" d="M 792.5,195.5 C 789.024,198.623 785.024,200.957 780.5,202.5C 783.976,199.377 787.976,197.043 792.5,195.5 Z"/></g>
<g><path style="opacity:1" fill="#453dff" d="M 780.5,202.5 C 779.341,204.25 777.674,205.25 775.5,205.5C 776.659,203.75 778.326,202.75 780.5,202.5 Z"/></g>
<g><path style="opacity:1" fill="#473fff" d="M 775.5,205.5 C 774.341,207.25 772.674,208.25 770.5,208.5C 771.659,206.75 773.326,205.75 775.5,205.5 Z"/></g>
<g><path style="opacity:1" fill="#574dff" d="M 770.5,208.5 C 766.677,211.916 762.343,214.582 757.5,216.5C 761.323,213.084 765.657,210.418 770.5,208.5 Z"/></g>
<g><path style="opacity:1" fill="#554aff" d="M 757.5,216.5 C 755.371,218.95 752.704,220.617 749.5,221.5C 751.629,219.05 754.296,217.383 757.5,216.5 Z"/></g>
<g><path style="opacity:1" fill="#5248ff" d="M 749.5,221.5 C 747.371,223.95 744.704,225.617 741.5,226.5C 743.629,224.05 746.296,222.383 749.5,221.5 Z"/></g>
<g><path style="opacity:1" fill="#d0a070" d="M 727.5,215.5 C 728.239,215.369 728.906,215.536 729.5,216C 724.165,220.802 718.499,224.802 712.5,228C 717.571,223.815 722.571,219.648 727.5,215.5 Z"/></g>
<g><path style="opacity:1" fill="#4a42ff" d="M 741.5,226.5 C 741.027,227.906 740.027,228.573 738.5,228.5C 738.973,227.094 739.973,226.427 741.5,226.5 Z"/></g>
<g><path style="opacity:1" fill="#5549ff" d="M 738.5,228.5 C 734.376,232.281 729.709,235.281 724.5,237.5C 728.624,233.719 733.291,230.719 738.5,228.5 Z"/></g>
<g><path style="opacity:1" fill="#4e48ff" d="M 724.5,237.5 C 724.027,238.906 723.027,239.573 721.5,239.5C 721.973,238.094 722.973,237.427 724.5,237.5 Z"/></g>
<g><path style="opacity:1" fill="#4641ff" d="M 721.5,239.5 C 721.027,240.906 720.027,241.573 718.5,241.5C 718.973,240.094 719.973,239.427 721.5,239.5 Z"/></g>
<g><path style="opacity:1" fill="#453fff" d="M 718.5,241.5 C 718.027,242.906 717.027,243.573 715.5,243.5C 715.973,242.094 716.973,241.427 718.5,241.5 Z"/></g>
<g><path style="opacity:1" fill="#453fff" d="M 715.5,243.5 C 715.027,244.906 714.027,245.573 712.5,245.5C 712.973,244.094 713.973,243.427 715.5,243.5 Z"/></g>
<g><path style="opacity:1" fill="#4540ff" d="M 712.5,245.5 C 712.027,246.906 711.027,247.573 709.5,247.5C 709.973,246.094 710.973,245.427 712.5,245.5 Z"/></g>
<g><path style="opacity:1" fill="#554aff" d="M 709.5,247.5 C 705.698,251.237 701.365,254.237 696.5,256.5C 700.302,252.763 704.635,249.763 709.5,247.5 Z"/></g>
<g><path style="opacity:1" fill="#4c45ff" d="M 696.5,256.5 C 696.027,257.906 695.027,258.573 693.5,258.5C 693.973,257.094 694.973,256.427 696.5,256.5 Z"/></g>
<g><path style="opacity:1" fill="#594eff" d="M 693.5,258.5 C 692.833,259.833 691.833,260.833 690.5,261.5C 690.167,261.5 689.833,261.5 689.5,261.5C 689.833,260.833 690.167,260.167 690.5,259.5C 691.391,258.89 692.391,258.557 693.5,258.5 Z"/></g>
<g><path style="opacity:1" fill="#4c41ff" d="M 687.5,262.5 C 687.5,262.833 687.5,263.167 687.5,263.5C 686.395,264.6 685.062,265.267 683.5,265.5C 684.262,263.738 685.596,262.738 687.5,262.5 Z"/></g>
<g><path style="opacity:1" fill="#3e3bff" d="M 683.5,265.5 C 683.027,266.906 682.027,267.573 680.5,267.5C 680.973,266.094 681.973,265.427 683.5,265.5 Z"/></g>
<g><path style="opacity:1" fill="#4c43ff" d="M 680.5,267.5 C 679.738,269.262 678.404,270.262 676.5,270.5C 677.262,268.738 678.596,267.738 680.5,267.5 Z"/></g>
<g><path style="opacity:1" fill="#d1a374" d="M 650.5,278.5 C 653.709,274.555 657.376,271.055 661.5,268C 662.167,267.333 662.833,267.333 663.5,268C 659.472,271.996 655.138,275.496 650.5,278.5 Z"/></g>
<g><path style="opacity:1" fill="#5248ff" d="M 676.5,270.5 C 674.704,272.9 672.37,274.567 669.5,275.5C 671.296,273.1 673.63,271.433 676.5,270.5 Z"/></g>
<g><path style="opacity:1" fill="#5449ff" d="M 669.5,275.5 C 668.738,277.262 667.404,278.262 665.5,278.5C 666.262,276.738 667.596,275.738 669.5,275.5 Z"/></g>
<g><path style="opacity:1" fill="#5349ff" d="M 665.5,278.5 C 663.704,280.9 661.37,282.567 658.5,283.5C 660.296,281.1 662.63,279.433 665.5,278.5 Z"/></g>
<g><path style="opacity:1" fill="#5148ff" d="M 658.5,283.5 C 657.738,285.262 656.404,286.262 654.5,286.5C 655.262,284.738 656.596,283.738 658.5,283.5 Z"/></g>
<g><path style="opacity:1" fill="#d3a578" d="M 650.5,278.5 C 646.625,283.111 642.292,287.278 637.5,291C 636.833,291.667 636.167,291.667 635.5,291C 640.192,286.341 645.192,282.174 650.5,278.5 Z"/></g>
<g><path style="opacity:1" fill="#4a43ff" d="M 654.5,286.5 C 653.738,288.262 652.404,289.262 650.5,289.5C 651.262,287.738 652.596,286.738 654.5,286.5 Z"/></g>
<g><path style="opacity:1" fill="#4f44ff" d="M 650.5,289.5 C 648.2,291.984 645.533,293.984 642.5,295.5C 644.443,292.529 647.109,290.529 650.5,289.5 Z"/></g>
<g><path style="opacity:1" fill="#d3a578" d="M 1240.5,149.5 C 1249.33,170.831 1254.17,193.164 1255,216.5C 1256.73,254.623 1253.39,292.289 1245,329.5C 1247.58,311.917 1249.91,294.25 1252,276.5C 1257.51,233.273 1253.67,190.94 1240.5,149.5 Z"/></g>
<g><path style="opacity:1" fill="#4e45ff" d="M 642.5,295.5 C 641.738,297.262 640.404,298.262 638.5,298.5C 639.262,296.738 640.596,295.738 642.5,295.5 Z"/></g>
<g><path style="opacity:1" fill="#4e47ff" d="M 638.5,298.5 C 637.738,300.262 636.404,301.262 634.5,301.5C 635.262,299.738 636.596,298.738 638.5,298.5 Z"/></g>
<g><path style="opacity:1" fill="#d4a77b" d="M 618.5,306.5 C 620.857,302.955 623.857,300.455 627.5,299C 624.899,302.112 621.899,304.612 618.5,306.5 Z"/></g>
<g><path style="opacity:1" fill="#4943ff" d="M 634.5,301.5 C 633.738,303.262 632.404,304.262 630.5,304.5C 631.262,302.738 632.596,301.738 634.5,301.5 Z"/></g>
<g><path style="opacity:1" fill="#5549ff" d="M 630.5,304.5 C 629.415,306.587 627.749,307.92 625.5,308.5C 626.585,306.413 628.251,305.08 630.5,304.5 Z"/></g>
<g><path style="opacity:1" fill="#d3a678" d="M 618.5,306.5 C 615.769,310.234 612.436,313.234 608.5,315.5C 611.231,311.766 614.564,308.766 618.5,306.5 Z"/></g>
<g><path style="opacity:1" fill="#5048ff" d="M 625.5,308.5 C 624.738,310.262 623.404,311.262 621.5,311.5C 622.262,309.738 623.596,308.738 625.5,308.5 Z"/></g>
<g><path style="opacity:1" fill="#5349ff" d="M 621.5,311.5 C 620.415,313.587 618.749,314.92 616.5,315.5C 617.585,313.413 619.251,312.08 621.5,311.5 Z"/></g>
<g><path style="opacity:1" fill="#6a5bff" d="M 1291.5,296.5 C 1290.86,315.671 1287.86,334.338 1282.5,352.5C 1285.7,333.736 1288.7,315.069 1291.5,296.5 Z"/></g>
<g><path style="opacity:1" fill="#5247ff" d="M 616.5,315.5 C 614.051,318.556 611.051,320.889 607.5,322.5C 609.949,319.444 612.949,317.111 616.5,315.5 Z"/></g>
<g><path style="opacity:1" fill="#d3a578" d="M 608.5,315.5 C 604.773,320.23 600.44,324.23 595.5,327.5C 599.227,322.77 603.56,318.77 608.5,315.5 Z"/></g>
<g><path style="opacity:1" fill="#4d46ff" d="M 607.5,322.5 C 606.415,324.587 604.749,325.92 602.5,326.5C 603.585,324.413 605.251,323.08 607.5,322.5 Z"/></g>
<g><path style="opacity:1" fill="#554cff" d="M 602.5,326.5 C 599.393,330.215 595.727,333.215 591.5,335.5C 594.607,331.785 598.273,328.785 602.5,326.5 Z"/></g>
<g><path style="opacity:1" fill="#cfaa96" d="M 595.5,327.5 C 591.767,331.227 588.434,335.227 585.5,339.5C 583.5,340.833 581.833,342.5 580.5,344.5C 577.911,345.419 575.911,347.086 574.5,349.5C 570.9,351.43 567.9,354.097 565.5,357.5C 562.226,362.394 561.393,362.394 563,357.5C 573.724,347.272 584.557,337.272 595.5,327.5 Z"/></g>
<g><path style="opacity:1" fill="#554cff" d="M 591.5,335.5 C 588.393,339.215 584.727,342.215 580.5,344.5C 581.833,342.5 583.5,340.833 585.5,339.5C 587.246,337.748 589.246,336.415 591.5,335.5 Z"/></g>
<g><path style="opacity:1" fill="#544cff" d="M 580.5,344.5 C 579.089,346.914 577.089,348.581 574.5,349.5C 575.911,347.086 577.911,345.419 580.5,344.5 Z"/></g>
<g><path style="opacity:1" fill="#8e78ff" d="M 574.5,349.5 C 572.1,352.903 569.1,355.57 565.5,357.5C 567.9,354.097 570.9,351.43 574.5,349.5 Z"/></g>
<g><path style="opacity:1" fill="#d0a680" d="M 517.5,404.5 C 521.772,398.89 526.438,393.557 531.5,388.5C 533.833,385.833 536.167,383.167 538.5,380.5C 539.833,380.5 540.5,379.833 540.5,378.5C 543.427,377.243 545.761,375.243 547.5,372.5C 550.964,369.538 554.297,366.371 557.5,363C 558.167,362.333 558.833,362.333 559.5,363C 545.659,377.008 531.659,390.841 517.5,404.5 Z"/></g>
<g><path style="opacity:1" fill="#675af2" d="M 547.5,372.5 C 545.761,375.243 543.427,377.243 540.5,378.5C 542.239,375.757 544.573,373.757 547.5,372.5 Z"/></g>
<g><path style="opacity:1" fill="#6054ff" d="M 538.5,380.5 C 536.167,383.167 533.833,385.833 531.5,388.5C 530.833,388.5 530.167,388.5 529.5,388.5C 531.9,385.097 534.9,382.43 538.5,380.5 Z"/></g>
<g><path style="opacity:1" fill="#d3a577" d="M 1219.5,419.5 C 1228.99,390.205 1237.15,360.538 1244,330.5C 1241.97,344.642 1238.97,358.642 1235,372.5C 1230.5,388.51 1225.33,404.177 1219.5,419.5 Z"/></g>
<g><path style="opacity:1" fill="#6457ff" d="M 1282.5,352.5 C 1278.32,375.226 1271.99,397.226 1263.5,418.5C 1270.17,396.492 1276.5,374.492 1282.5,352.5 Z"/></g>
<g><path style="opacity:1" fill="#fdfcfc" d="M 529.5,388.5 C 530.167,388.5 530.833,388.5 531.5,388.5C 526.438,393.557 521.772,398.89 517.5,404.5C 517.5,405.833 516.833,406.5 515.5,406.5C 509.773,411.224 504.773,416.558 500.5,422.5C 500.5,423.833 499.833,424.5 498.5,424.5C 494.434,427.563 491.101,431.229 488.5,435.5C 484.434,438.563 481.101,442.229 478.5,446.5C 475.097,448.9 472.43,451.9 470.5,455.5C 467.097,457.9 464.43,460.9 462.5,464.5C 451.201,478.466 439.535,492.133 427.5,505.5C 423.785,508.607 420.785,512.273 418.5,516.5C 412.252,525.751 405.252,534.418 397.5,542.5C 394.444,544.949 392.111,547.949 390.5,551.5C 387.444,553.949 385.111,556.949 383.5,560.5C 383.262,562.404 382.262,563.738 380.5,564.5C 377.444,566.949 375.111,569.949 373.5,573.5C 371.262,578.071 368.262,582.071 364.5,585.5C 361.067,588.601 358.4,592.268 356.5,596.5C 346.076,611.684 335.41,626.684 324.5,641.5C 320.763,645.302 317.763,649.635 315.5,654.5C 305.995,670.183 295.995,685.516 285.5,700.5C 282.084,704.323 279.418,708.657 277.5,713.5C 273.047,718.967 269.381,724.967 266.5,731.5C 266.25,733.674 265.25,735.341 263.5,736.5C 260.377,739.976 258.043,743.976 256.5,748.5C 253.255,755.996 249.255,762.996 244.5,769.5C 240.156,774.847 236.823,780.847 234.5,787.5C 234.672,788.492 234.338,789.158 233.5,789.5C 230.407,793.347 228.074,797.68 226.5,802.5C 226.34,804.153 225.674,805.486 224.5,806.5C 216.459,819.914 209.459,833.914 203.5,848.5C 203.379,851.105 202.379,853.105 200.5,854.5C 198.043,857.751 196.376,861.418 195.5,865.5C 193.043,868.751 191.376,872.418 190.5,876.5C 187.041,886.082 183.041,895.416 178.5,904.5C 174.872,910.704 172.205,917.371 170.5,924.5C 169.404,929.132 167.737,933.466 165.5,937.5C 160.868,947.392 157.201,957.725 154.5,968.5C 145.815,992.221 138.815,1016.55 133.5,1041.5C 133.52,1042.73 133.853,1043.73 134.5,1044.5C 134.737,1045.79 134.404,1046.79 133.5,1047.5C 133.279,1044.9 132.779,1044.9 132,1047.5C 120.965,1094.76 118.632,1142.42 125,1190.5C 125.333,1194.03 126.167,1196.7 127.5,1198.5C 128.338,1198.84 128.672,1199.51 128.5,1200.5C 127.861,1201.1 127.528,1201.93 127.5,1203C 129.432,1212.63 132.432,1221.79 136.5,1230.5C 137.931,1231.78 138.598,1233.45 138.5,1235.5C 140.46,1242.09 143.46,1248.09 147.5,1253.5C 150.221,1256.89 152.554,1260.56 154.5,1264.5C 153.833,1264.17 153.167,1263.83 152.5,1263.5C 150.704,1261.1 148.37,1259.43 145.5,1258.5C 144.738,1256.74 143.404,1255.74 141.5,1255.5C 136.208,1250.51 130.875,1245.51 125.5,1240.5C 124.581,1237.91 122.914,1235.91 120.5,1234.5C 119.92,1232.25 118.587,1230.58 116.5,1229.5C 97.1731,1200.18 86.8398,1167.85 85.5,1132.5C 85.8016,1129.94 85.4682,1127.61 84.5,1125.5C 84.3361,1085.14 89.5028,1045.48 100,1006.5C 104.075,992.113 108.241,977.779 112.5,963.5C 115.269,958.199 117.269,952.532 118.5,946.5C 121.129,942.623 122.796,938.29 123.5,933.5C 125.403,930.47 126.737,927.137 127.5,923.5C 128.931,922.22 129.598,920.553 129.5,918.5C 133.293,911.906 136.293,904.906 138.5,897.5C 140.957,894.249 142.624,890.582 143.5,886.5C 146.647,881.872 148.981,876.872 150.5,871.5C 150.992,869.181 151.992,867.181 153.5,865.5C 157.008,859.818 160.008,853.818 162.5,847.5C 162.328,846.508 162.662,845.842 163.5,845.5C 167.594,839.649 170.927,833.315 173.5,826.5C 175.924,823.992 177.59,820.992 178.5,817.5C 178.328,816.508 178.662,815.842 179.5,815.5C 183.293,810.684 186.293,805.35 188.5,799.5C 191.623,796.024 193.957,792.024 195.5,787.5C 197.25,786.341 198.25,784.674 198.5,782.5C 200.25,781.341 201.25,779.674 201.5,777.5C 203.25,776.341 204.25,774.674 204.5,772.5C 207.916,768.677 210.582,764.343 212.5,759.5C 214.95,757.371 216.617,754.704 217.5,751.5C 221.281,747.376 224.281,742.709 226.5,737.5C 227.906,737.027 228.573,736.027 228.5,734.5C 229.906,734.027 230.573,733.027 230.5,731.5C 233.66,727.852 236.327,723.852 238.5,719.5C 239.906,719.027 240.573,718.027 240.5,716.5C 241.906,716.027 242.573,715.027 242.5,713.5C 243.906,713.027 244.573,712.027 244.5,710.5C 247.605,707.725 249.938,704.392 251.5,700.5C 252.906,700.027 253.573,699.027 253.5,697.5C 255.9,695.704 257.567,693.37 258.5,690.5C 259.906,690.027 260.573,689.027 260.5,687.5C 262.9,685.704 264.567,683.37 265.5,680.5C 267.262,679.738 268.262,678.404 268.5,676.5C 270.9,674.704 272.567,672.37 273.5,669.5C 275.262,668.738 276.262,667.404 276.5,665.5C 278.262,664.738 279.262,663.404 279.5,661.5C 281.984,659.2 283.984,656.533 285.5,653.5C 287.984,651.2 289.984,648.533 291.5,645.5C 293.262,644.738 294.262,643.404 294.5,641.5C 296.262,640.738 297.262,639.404 297.5,637.5C 299.587,636.415 300.92,634.749 301.5,632.5C 303.262,631.738 304.262,630.404 304.5,628.5C 306.587,627.415 307.92,625.749 308.5,623.5C 312.922,619.413 316.589,614.746 319.5,609.5C 321.914,608.089 323.581,606.089 324.5,603.5C 326.587,602.415 327.92,600.749 328.5,598.5C 332.308,594.878 335.641,590.878 338.5,586.5C 340.587,585.415 341.92,583.749 342.5,581.5C 345.243,579.761 347.243,577.427 348.5,574.5C 350.914,573.089 352.581,571.089 353.5,568.5C 356.243,566.761 358.243,564.427 359.5,561.5C 362.573,559.431 364.906,556.764 366.5,553.5C 369.573,551.431 371.906,548.764 373.5,545.5C 376.903,543.1 379.57,540.1 381.5,536.5C 385.234,533.769 388.234,530.436 390.5,526.5C 395.23,522.773 399.23,518.44 402.5,513.5C 407.23,509.773 411.23,505.44 414.5,500.5C 414.833,499.5 415.5,498.833 416.5,498.5C 424.224,491.778 431.224,484.445 437.5,476.5C 438.833,474.5 440.5,472.833 442.5,471.5C 449.758,464.908 456.758,457.908 463.5,450.5C 464.167,449.167 465.167,448.167 466.5,447.5C 475.779,439.889 484.446,431.555 492.5,422.5C 498.108,418.561 503.108,413.894 507.5,408.5C 512.105,405.564 516.105,401.898 519.5,397.5C 523.436,395.234 526.769,392.234 529.5,388.5 Z"/></g>
<g><path style="opacity:1" fill="#7362ff" d="M 529.5,388.5 C 526.769,392.234 523.436,395.234 519.5,397.5C 522.231,393.766 525.564,390.766 529.5,388.5 Z"/></g>
<g><path style="opacity:1" fill="#6355ff" d="M 519.5,397.5 C 516.105,401.898 512.105,405.564 507.5,408.5C 510.895,404.102 514.895,400.436 519.5,397.5 Z"/></g>
<g><path style="opacity:1" fill="#d2a375" d="M 515.5,406.5 C 511.227,412.442 506.227,417.776 500.5,422.5C 504.773,416.558 509.773,411.224 515.5,406.5 Z"/></g>
<g><path style="opacity:1" fill="#535252" d="M 690.5,259.5 C 690.167,260.167 689.833,260.833 689.5,261.5C 688.167,404.167 688.167,546.833 689.5,689.5C 722.846,691.342 756.179,693.342 789.5,695.5C 846.509,699.209 903.509,702.876 960.5,706.5C 1006.82,709.499 1053.15,712.166 1099.5,714.5C 1099.5,715.167 1099.83,715.5 1100.5,715.5C 1132.15,717.404 1163.82,719.071 1195.5,720.5C 1194.17,721.167 1192.83,721.833 1191.5,722.5C 1160.83,720.5 1130.16,718.5 1099.5,716.5C 1098.83,716.5 1098.17,716.5 1097.5,716.5C 1087.49,715.928 1077.49,715.261 1067.5,714.5C 1032.85,712.19 998.185,710.19 963.5,708.5C 946.308,706.957 928.974,705.624 911.5,704.5C 872.179,701.967 832.845,699.634 793.5,697.5C 759.659,695.354 725.826,693.02 692,690.5C 685.98,692.101 680.146,694.101 674.5,696.5C 678.524,694.068 682.69,691.734 687,689.5C 687.5,598.834 687.667,508.167 687.5,417.5C 687.5,366.167 687.5,314.833 687.5,263.5C 687.5,263.167 687.5,262.833 687.5,262.5C 687.5,227.833 687.5,193.167 687.5,158.5C 686.325,158.719 685.325,158.386 684.5,157.5C 686.111,154.613 687.444,151.613 688.5,148.5C 689.831,151.49 691.164,154.49 692.5,157.5C 691.675,158.386 690.675,158.719 689.5,158.5C 689.168,192.337 689.502,226.004 690.5,259.5 Z"/></g>
<g><path style="opacity:1" fill="#dcdcdc" d="M 689.5,417.5 C 787.954,420.296 864.454,462.296 919,543.5C 949.914,593.491 963.748,647.824 960.5,706.5C 903.509,702.876 846.509,699.209 789.5,695.5C 790.476,691.073 792.143,686.907 794.5,683C 794.167,682.667 793.833,682.333 793.5,682C 794.659,680.173 795.992,678.507 797.5,677C 796.833,676.667 796.167,676.333 795.5,676C 796.1,674.324 797.433,672.657 799.5,671C 796.833,670.333 796.833,669.667 799.5,669C 799.043,668.586 798.709,668.086 798.5,667.5C 799.527,663.809 800.86,660.309 802.5,657C 802.167,656 801.833,655 801.5,654C 802.133,650.24 803.133,646.573 804.5,643C 804.384,641.732 804.051,640.398 803.5,639C 804.167,637.667 804.833,636.333 805.5,635C 805.345,623.279 805.345,611.946 805.5,601C 804.241,597.122 803.241,593.122 802.5,589C 802.616,587.732 802.949,586.398 803.5,585C 802.5,582.667 801.5,580.333 800.5,578C 799.978,575.814 799.978,573.481 800.5,571C 798.045,568.617 797.045,565.951 797.5,563C 796.009,560.903 795.009,558.57 794.5,556C 794.833,555.667 795.167,555.333 795.5,555C 793.561,552.376 791.894,549.543 790.5,546.5C 790.709,545.914 791.043,545.414 791.5,545C 789.368,544.082 788.701,542.749 789.5,541C 786.176,535.794 783.176,530.794 780.5,526C 780.833,525.667 781.167,525.333 781.5,525C 780.584,524.626 779.75,524.126 779,523.5C 773.598,512.893 766.432,503.06 757.5,494C 757.833,493.667 758.167,493.333 758.5,493C 743.27,478.508 727.436,465.674 711,454.5C 710.667,454.833 710.333,455.167 710,455.5C 706.53,454.038 703.197,451.705 700,448.5C 698.984,449.634 698.317,449.301 698,447.5C 695.81,448.584 694.144,447.917 693,445.5C 691.855,445.619 690.688,445.952 689.5,446.5C 689.5,436.833 689.5,427.167 689.5,417.5 Z"/></g>
<g><path style="opacity:1" fill="#7261ff" d="M 507.5,408.5 C 503.108,413.894 498.108,418.561 492.5,422.5C 496.892,417.106 501.892,412.439 507.5,408.5 Z"/></g>
<g><path style="opacity:1" fill="#574bff" d="M 1263.5,418.5 C 1262.74,423.572 1261.07,428.239 1258.5,432.5C 1259.4,427.466 1261.06,422.799 1263.5,418.5 Z"/></g>
<g><path style="opacity:1" fill="#d2a476" d="M 1219.5,419.5 C 1218.31,425.528 1216.31,431.195 1213.5,436.5C 1214.73,430.468 1216.73,424.801 1219.5,419.5 Z"/></g>
<g><path style="opacity:1" fill="#6556ff" d="M 492.5,422.5 C 484.446,431.555 475.779,439.889 466.5,447.5C 474.554,438.445 483.221,430.111 492.5,422.5 Z"/></g>
<g><path style="opacity:1" fill="#e5e5e5" d="M 687.5,417.5 C 687.667,508.167 687.5,598.834 687,689.5C 682.69,691.734 678.524,694.068 674.5,696.5C 673.508,696.328 672.842,696.662 672.5,697.5C 665.077,700.046 658.077,703.379 651.5,707.5C 644.077,710.046 637.077,713.379 630.5,717.5C 623.077,720.046 616.077,723.379 609.5,727.5C 608.508,727.328 607.842,727.662 607.5,728.5C 600.745,730.712 594.412,733.712 588.5,737.5C 587.508,737.328 586.842,737.662 586.5,738.5C 579.077,741.046 572.077,744.379 565.5,748.5C 557.41,751.379 549.743,755.046 542.5,759.5C 537.081,761.044 532.081,763.378 527.5,766.5C 525.033,766.755 523.033,767.755 521.5,769.5C 517.736,770.548 514.069,771.881 510.5,773.5C 474.383,749.041 450.383,716.874 438.5,677C 437.199,673.731 435.533,670.731 433.5,668C 434.097,666.111 434.431,664.278 434.5,662.5C 432.862,661.295 432.529,659.962 433.5,658.5C 431.862,657.295 431.529,655.962 432.5,654.5C 431.56,650.626 430.56,646.792 429.5,643C 429.009,634.877 429.009,626.544 429.5,618C 429.12,615.674 428.12,613.841 426.5,612.5C 456.939,520.228 518.272,458.728 610.5,428C 635.672,420.812 661.338,417.312 687.5,417.5 Z"/></g>
<g><path style="opacity:1" fill="#7e7d7e" d="M 689.5,261.5 C 689.833,261.5 690.167,261.5 690.5,261.5C 689.505,313.428 689.171,365.428 689.5,417.5C 689.5,427.167 689.5,436.833 689.5,446.5C 689.5,527.5 689.5,608.5 689.5,689.5C 688.167,546.833 688.167,404.167 689.5,261.5 Z"/></g>
<g><path style="opacity:1" fill="#d1a272" d="M 498.5,424.5 C 495.899,428.771 492.566,432.437 488.5,435.5C 491.101,431.229 494.434,427.563 498.5,424.5 Z"/></g>
<g><path style="opacity:1" fill="#5c50ff" d="M 1258.5,432.5 C 1258.58,435.649 1257.58,438.316 1255.5,440.5C 1255.73,437.458 1256.73,434.792 1258.5,432.5 Z"/></g>
<g><path style="opacity:1" fill="#d2a477" d="M 488.5,435.5 C 485.899,439.771 482.566,443.437 478.5,446.5C 481.101,442.229 484.434,438.563 488.5,435.5 Z"/></g>
<g><path style="opacity:1" fill="#e3e3e3" d="M 789.5,695.5 C 756.179,693.342 722.846,691.342 689.5,689.5C 689.5,608.5 689.5,527.5 689.5,446.5C 690.688,445.952 691.855,445.619 693,445.5C 694.144,447.917 695.81,448.584 698,447.5C 698.317,449.301 698.984,449.634 700,448.5C 703.197,451.705 706.53,454.038 710,455.5C 710.333,455.167 710.667,454.833 711,454.5C 727.436,465.674 743.27,478.508 758.5,493C 758.167,493.333 757.833,493.667 757.5,494C 766.432,503.06 773.598,512.893 779,523.5C 779.75,524.126 780.584,524.626 781.5,525C 781.167,525.333 780.833,525.667 780.5,526C 783.176,530.794 786.176,535.794 789.5,541C 788.701,542.749 789.368,544.082 791.5,545C 791.043,545.414 790.709,545.914 790.5,546.5C 791.894,549.543 793.561,552.376 795.5,555C 795.167,555.333 794.833,555.667 794.5,556C 795.009,558.57 796.009,560.903 797.5,563C 797.045,565.951 798.045,568.617 800.5,571C 799.978,573.481 799.978,575.814 800.5,578C 801.5,580.333 802.5,582.667 803.5,585C 802.949,586.398 802.616,587.732 802.5,589C 803.241,593.122 804.241,597.122 805.5,601C 805.345,611.946 805.345,623.279 805.5,635C 804.833,636.333 804.167,637.667 803.5,639C 804.051,640.398 804.384,641.732 804.5,643C 803.133,646.573 802.133,650.24 801.5,654C 801.833,655 802.167,656 802.5,657C 800.86,660.309 799.527,663.809 798.5,667.5C 798.709,668.086 799.043,668.586 799.5,669C 796.833,669.667 796.833,670.333 799.5,671C 797.433,672.657 796.1,674.324 795.5,676C 796.167,676.333 796.833,676.667 797.5,677C 795.992,678.507 794.659,680.173 793.5,682C 793.833,682.333 794.167,682.667 794.5,683C 792.143,686.907 790.476,691.073 789.5,695.5 Z"/></g>
<g><path style="opacity:1" fill="#d2a375" d="M 1213.5,436.5 C 1212.37,442.06 1210.54,447.393 1208,452.5C 1208.54,446.705 1210.38,441.371 1213.5,436.5 Z"/></g>
<g><path style="opacity:1" fill="#d2a476" d="M 478.5,446.5 C 476.57,450.1 473.903,453.1 470.5,455.5C 472.43,451.9 475.097,448.9 478.5,446.5 Z"/></g>
<g><path style="opacity:1" fill="#584cff" d="M 1255.5,440.5 C 1253.33,449.358 1250,457.691 1245.5,465.5C 1248.07,456.784 1251.4,448.451 1255.5,440.5 Z"/></g>
<g><path style="opacity:1" fill="#5646ff" d="M 463.5,450.5 C 456.758,457.908 449.758,464.908 442.5,471.5C 448.521,463.479 455.521,456.479 463.5,450.5 Z"/></g>
<g><path style="opacity:1" fill="#d1a273" d="M 470.5,455.5 C 468.57,459.1 465.903,462.1 462.5,464.5C 464.43,460.9 467.097,457.9 470.5,455.5 Z"/></g>
<g><path style="opacity:1" fill="#c08142" d="M 1119.5,465.5 C 1119.56,464.957 1119.89,464.624 1120.5,464.5C 1121.19,470.387 1121.85,476.22 1122.5,482C 1121.5,482.667 1120.5,482.667 1119.5,482C 1120.82,476.401 1120.82,470.901 1119.5,465.5 Z"/></g>
<g><path style="opacity:1" fill="#c89159" d="M 1135.5,468.5 C 1136.19,472.899 1136.86,477.399 1137.5,482C 1136.55,482.617 1135.72,482.451 1135,481.5C 1134.79,477.911 1134.29,474.411 1133.5,471C 1134.38,470.292 1135.05,469.458 1135.5,468.5 Z"/></g>
<g><path style="opacity:1" fill="#cc9762" d="M 1068.5,463.5 C 1071.48,463.827 1074.32,463.827 1077,463.5C 1077.67,465.833 1077.67,468.167 1077,470.5C 1076.58,465.87 1074.08,464.036 1069.5,465C 1068.17,467 1068.17,469 1069.5,471C 1075.66,471.481 1078.49,474.647 1078,480.5C 1077.17,481.333 1076.33,482.167 1075.5,483C 1072.4,483.127 1069.4,483.293 1066.5,483.5C 1065.17,481.5 1065.17,479.5 1066.5,477.5C 1067.85,481.342 1070.52,482.842 1074.5,482C 1076.6,480.267 1076.93,478.267 1075.5,476C 1067.13,474.862 1064.8,470.695 1068.5,463.5 Z"/></g>
<g><path style="opacity:1" fill="#c89159" d="M 1097.5,466.5 C 1098.65,471.65 1098.82,476.984 1098,482.5C 1096.87,478.767 1096.04,474.934 1095.5,471C 1096.58,469.67 1097.25,468.17 1097.5,466.5 Z"/></g>
<g><path style="opacity:1" fill="#d1a071" d="M 1084.5,471.5 C 1087.1,470.031 1089.27,470.698 1091,473.5C 1091.33,476.167 1091.67,478.833 1092,481.5C 1092.56,479.405 1093.06,479.238 1093.5,481C 1093.24,482.946 1092.24,483.612 1090.5,483C 1089.07,481.084 1088.07,478.917 1087.5,476.5C 1082.21,478.836 1082.21,481.003 1087.5,483C 1083.29,484.162 1081.45,482.662 1082,478.5C 1083.73,476.549 1085.9,475.549 1088.5,475.5C 1088.83,472.5 1087.5,471.167 1084.5,471.5 Z"/></g>
<g><path style="opacity:1" fill="#cb9560" d="M 1108.5,470.5 C 1113.5,469.671 1115.67,471.671 1115,476.5C 1112.24,469.836 1109.74,469.836 1107.5,476.5C 1107.54,480.897 1109.54,482.564 1113.5,481.5C 1114.7,481.846 1114.7,482.346 1113.5,483C 1106.89,483.336 1104.39,480.169 1106,473.5C 1107.04,472.627 1107.88,471.627 1108.5,470.5 Z"/></g>
<g><path style="opacity:1" fill="#ce9b68" d="M 1125.5,470.5 C 1126.83,470.5 1128.17,470.5 1129.5,470.5C 1129,474.759 1129.67,478.759 1131.5,482.5C 1129.5,483.833 1127.5,483.833 1125.5,482.5C 1128.02,478.509 1128.02,474.509 1125.5,470.5 Z"/></g>
<g><path style="opacity:1" fill="#4b41ff" d="M 1245.5,465.5 C 1244.46,470.642 1242.46,475.309 1239.5,479.5C 1240.93,474.522 1242.93,469.856 1245.5,465.5 Z"/></g>
<g><path style="opacity:1" fill="#cc9764" d="M 1146.5,471.5 C 1146.6,474.265 1146.77,477.265 1147,480.5C 1148.17,481.893 1149.67,482.727 1151.5,483C 1143.15,482.113 1141.49,478.279 1146.5,471.5 Z"/></g>
<g><path style="opacity:1" fill="#d2a375" d="M 1168.5,464.5 C 1175.94,464.366 1178.1,467.7 1175,474.5C 1173.17,476.333 1171.33,478.167 1169.5,480C 1171.77,480.758 1173.94,480.591 1176,479.5C 1176.49,480.793 1176.66,482.127 1176.5,483.5C 1172.77,483.823 1169.11,483.489 1165.5,482.5C 1169.74,478.947 1172.74,474.613 1174.5,469.5C 1173.42,465.753 1171.08,464.587 1167.5,466C 1168.06,465.617 1168.39,465.117 1168.5,464.5 Z"/></g>
<g><path style="opacity:1" fill="#c18244" d="M 1183.5,509.5 C 1183.52,507.94 1183.85,506.44 1184.5,505C 1178.16,501.326 1175.66,495.826 1177,488.5C 1178.5,485.667 1180.67,483.5 1183.5,482C 1187.24,481.498 1190.91,481.498 1194.5,482C 1196,478.851 1197.5,475.684 1199,472.5C 1198.57,476.298 1197.4,479.965 1195.5,483.5C 1200.8,489.631 1200.8,495.798 1195.5,502C 1192.64,503.399 1189.64,504.399 1186.5,505C 1185.6,506.652 1184.6,508.152 1183.5,509.5 Z"/></g>
<g><path style="opacity:1" fill="#544aff" d="M 1239.5,479.5 C 1238.96,482.912 1237.62,485.912 1235.5,488.5C 1236.04,485.088 1237.38,482.088 1239.5,479.5 Z"/></g>
<g><path style="opacity:1" fill="#594eff" d="M 437.5,476.5 C 431.224,484.445 424.224,491.778 416.5,498.5C 422.776,490.555 429.776,483.222 437.5,476.5 Z"/></g>
<g><path style="opacity:1" fill="#544cff" d="M 1235.5,488.5 C 1234.57,492.362 1233.07,496.029 1231,499.5C 1231.38,495.4 1232.88,491.734 1235.5,488.5 Z"/></g>
<g><path style="opacity:1" fill="#574cff" d="M 414.5,500.5 C 411.23,505.44 407.23,509.773 402.5,513.5C 405.77,508.56 409.77,504.227 414.5,500.5 Z"/></g>
<g><path style="opacity:1" fill="#d1a172" d="M 427.5,505.5 C 425.215,509.727 422.215,513.393 418.5,516.5C 420.785,512.273 423.785,508.607 427.5,505.5 Z"/></g>
<g><path style="opacity:1" fill="#d0a172" d="M 1183.5,509.5 C 1182.57,513.362 1181.07,517.029 1179,520.5C 1179.38,516.4 1180.88,512.734 1183.5,509.5 Z"/></g>
<g><path style="opacity:1" fill="#6053ff" d="M 402.5,513.5 C 399.23,518.44 395.23,522.773 390.5,526.5C 393.77,521.56 397.77,517.227 402.5,513.5 Z"/></g>
<g><path style="opacity:1" fill="#767575" d="M 1186.5,528.5 C 1187.75,529.334 1188.41,530.667 1188.5,532.5C 1188.17,533.833 1187.83,535.167 1187.5,536.5C 1186.52,533.914 1186.19,531.247 1186.5,528.5 Z"/></g>
<g><path style="opacity:1" fill="#5149ff" d="M 1228.5,501.5 C 1229.57,502.251 1229.74,503.251 1229,504.5C 1222.26,518.323 1215.26,531.99 1208,545.5C 1214.51,530.804 1221.34,516.138 1228.5,501.5 Z"/></g>
<g><path style="opacity:1" fill="#544aff" d="M 390.5,526.5 C 388.234,530.436 385.234,533.769 381.5,536.5C 383.766,532.564 386.766,529.231 390.5,526.5 Z"/></g>
<g><path style="opacity:1" fill="#cf9f6f" d="M 1175.5,524.5 C 1176.57,525.251 1176.74,526.251 1176,527.5C 1174,531.5 1172,535.5 1170,539.5C 1169.33,538.5 1169.33,537.5 1170,536.5C 1172.12,532.598 1173.95,528.598 1175.5,524.5 Z"/></g>
<g><path style="opacity:1" fill="#594dff" d="M 381.5,536.5 C 379.57,540.1 376.903,543.1 373.5,545.5C 375.43,541.9 378.097,538.9 381.5,536.5 Z"/></g>
<g><path style="opacity:1" fill="#d0a071" d="M 397.5,542.5 C 395.889,546.051 393.556,549.051 390.5,551.5C 392.111,547.949 394.444,544.949 397.5,542.5 Z"/></g>
<g><path style="opacity:1" fill="#574cff" d="M 373.5,545.5 C 371.906,548.764 369.573,551.431 366.5,553.5C 368.094,550.236 370.427,547.569 373.5,545.5 Z"/></g>
<g><path style="opacity:1" fill="#4e45ff" d="M 1200.5,558.5 C 1201.8,554.577 1203.63,550.91 1206,547.5C 1205.25,551.67 1203.41,555.337 1200.5,558.5 Z"/></g>
<g><path style="opacity:1" fill="#d1a374" d="M 390.5,551.5 C 388.889,555.051 386.556,558.051 383.5,560.5C 385.111,556.949 387.444,553.949 390.5,551.5 Z"/></g>
<g><path style="opacity:1" fill="#574cff" d="M 366.5,553.5 C 364.906,556.764 362.573,559.431 359.5,561.5C 361.094,558.236 363.427,555.569 366.5,553.5 Z"/></g>
<g><path style="opacity:1" fill="#534aff" d="M 1200.5,558.5 C 1199.59,561.992 1197.92,564.992 1195.5,567.5C 1196.41,564.008 1198.08,561.008 1200.5,558.5 Z"/></g>
<g><path style="opacity:1" fill="#544aff" d="M 359.5,561.5 C 358.243,564.427 356.243,566.761 353.5,568.5C 354.757,565.573 356.757,563.239 359.5,561.5 Z"/></g>
<g><path style="opacity:1" fill="#878686" d="M 1185.5,561.5 C 1186.76,562.514 1187.43,564.014 1187.5,566C 1187.17,567.5 1186.83,569 1186.5,570.5C 1185.52,567.572 1185.18,564.572 1185.5,561.5 Z"/></g>
<g><path style="opacity:1" fill="#d1a274" d="M 380.5,564.5 C 378.889,568.051 376.556,571.051 373.5,573.5C 375.111,569.949 377.444,566.949 380.5,564.5 Z"/></g>
<g><path style="opacity:1" fill="#4d44ff" d="M 353.5,568.5 C 352.581,571.089 350.914,573.089 348.5,574.5C 349.419,571.911 351.086,569.911 353.5,568.5 Z"/></g>
<g><path style="opacity:1" fill="#cf9e6e" d="M 1156.5,563.5 C 1157.04,563.56 1157.38,563.893 1157.5,564.5C 1154.59,570.658 1151.42,576.658 1148,582.5C 1150.24,576.017 1153.07,569.683 1156.5,563.5 Z"/></g>
<g><path style="opacity:1" fill="#130cff" d="M 1195.5,567.5 C 1194.65,570.035 1193.65,572.535 1192.5,575C 1200.09,581.294 1200.42,587.96 1193.5,595C 1189.74,597.573 1185.74,598.073 1181.5,596.5C 1180.71,595.599 1179.71,594.932 1178.5,594.5C 1175.64,590.298 1174.81,585.631 1176,580.5C 1179.7,575.302 1184.86,572.969 1191.5,573.5C 1192.36,571.089 1193.69,569.089 1195.5,567.5 Z"/></g>
<g><path style="opacity:1" fill="#5a4bff" d="M 348.5,574.5 C 347.243,577.427 345.243,579.761 342.5,581.5C 343.757,578.573 345.757,576.239 348.5,574.5 Z"/></g>
<g><path style="opacity:1" fill="#4f47ff" d="M 342.5,581.5 C 341.92,583.749 340.587,585.415 338.5,586.5C 339.08,584.251 340.413,582.585 342.5,581.5 Z"/></g>
<g><path style="opacity:1" fill="#cf9f6f" d="M 1145.5,584.5 C 1145.28,588.335 1143.78,592.002 1141,595.5C 1141.9,591.691 1143.4,588.025 1145.5,584.5 Z"/></g>
<g><path style="opacity:1" fill="#d1a274" d="M 364.5,585.5 C 362.6,589.732 359.933,593.399 356.5,596.5C 358.4,592.268 361.067,588.601 364.5,585.5 Z"/></g>
<g><path style="opacity:1" fill="#8e87ff" d="M 1207.5,596.5 C 1207.5,596.833 1207.5,597.167 1207.5,597.5C 1205.28,596.631 1202.95,596.298 1200.5,596.5C 1202.75,593.966 1205.08,593.966 1207.5,596.5 Z"/></g>
<g><path style="opacity:1" fill="#5a4fff" d="M 338.5,586.5 C 335.641,590.878 332.308,594.878 328.5,598.5C 330.882,593.752 334.216,589.752 338.5,586.5 Z"/></g>
<g><path style="opacity:1" fill="#1e1aff" d="M 1207.5,597.5 C 1207.5,597.167 1207.5,596.833 1207.5,596.5C 1209.1,595.357 1209.77,596.024 1209.5,598.5C 1209.33,599.5 1209.17,600.5 1209,601.5C 1208.59,600.099 1208.09,598.766 1207.5,597.5 Z"/></g>
<g><path style="opacity:1" fill="#362fff" d="M 1244.5,595.5 C 1245.24,595.369 1245.91,595.536 1246.5,596C 1245,597.5 1243.5,599 1242,600.5C 1242.06,598.565 1242.89,596.898 1244.5,595.5 Z"/></g>
<g><path style="opacity:1" fill="#2a26ff" d="M 1258.5,596.5 C 1259.68,596.281 1260.68,596.614 1261.5,597.5C 1259.95,598.798 1258.95,598.465 1258.5,596.5 Z"/></g>
<g><path style="opacity:1" fill="#1313ff" d="M 1249.5,596.5 C 1250.57,595.566 1251.9,595.232 1253.5,595.5C 1252.9,601.96 1253.57,608.126 1255.5,614C 1253.5,614.667 1251.5,614.667 1249.5,614C 1250.78,611.276 1251.44,608.276 1251.5,605C 1251.48,601.748 1250.81,598.915 1249.5,596.5 Z"/></g>
<g><path style="opacity:1" fill="#1a17ff" d="M 1302.5,596.5 C 1304.45,601.735 1305.12,607.402 1304.5,613.5C 1304.92,614.818 1304.25,614.818 1302.5,613.5C 1302.5,608.5 1302.5,603.5 1302.5,598.5C 1301.45,598.649 1300.45,598.483 1299.5,598C 1300.74,597.768 1301.74,597.268 1302.5,596.5 Z"/></g>
<g><path style="opacity:1" fill="#4e47ff" d="M 328.5,598.5 C 327.92,600.749 326.587,602.415 324.5,603.5C 325.08,601.251 326.413,599.585 328.5,598.5 Z"/></g>
<g><path style="opacity:1" fill="#594eff" d="M 1178.5,594.5 C 1179.71,594.932 1180.71,595.599 1181.5,596.5C 1180.5,596.414 1179.67,596.748 1179,597.5C 1174.97,604.905 1170.47,611.905 1165.5,618.5C 1169.83,610.5 1174.17,602.5 1178.5,594.5 Z"/></g>
<g><path style="opacity:1" fill="#382dff" d="M 1200.5,596.5 C 1198.94,599.244 1199.61,601.41 1202.5,603C 1208.28,603.108 1210.78,605.941 1210,611.5C 1209.58,613.426 1208.41,614.426 1206.5,614.5C 1206.5,614.167 1206.5,613.833 1206.5,613.5C 1208.38,612.341 1208.88,610.674 1208,608.5C 1205,606.833 1202,605.167 1199,603.5C 1198.33,601.5 1198.33,599.5 1199,597.5C 1199.38,596.944 1199.88,596.611 1200.5,596.5 Z"/></g>
<g><path style="opacity:1" fill="#2825ff" d="M 1229.5,597.5 C 1230.45,598.919 1230.78,600.585 1230.5,602.5C 1235.83,602.833 1235.83,603.167 1230.5,603.5C 1230.62,607.447 1230.62,611.114 1230.5,614.5C 1229.91,614.291 1229.41,613.957 1229,613.5C 1229.04,609.668 1228.2,606.168 1226.5,603C 1228.61,601.736 1229.61,599.903 1229.5,597.5 Z"/></g>
<g><path style="opacity:1" fill="#2e25ff" d="M 1214.5,603.5 C 1216.33,604.14 1216.67,605.14 1215.5,606.5C 1214.61,605.675 1214.28,604.675 1214.5,603.5 Z"/></g>
<g><path style="opacity:1" fill="#5e4eff" d="M 1240.5,603.5 C 1241.87,601.649 1243.53,601.316 1245.5,602.5C 1247.42,604.071 1248.42,606.071 1248.5,608.5C 1245.5,608.5 1242.5,608.5 1239.5,608.5C 1240.34,613.668 1242.84,614.668 1247,611.5C 1247.35,613.923 1246.18,614.923 1243.5,614.5C 1238.21,613.696 1236.38,610.696 1238,605.5C 1238.42,604.244 1239.25,603.577 1240.5,603.5 Z"/></g>
<g><path style="opacity:1" fill="#f6f5ff" d="M 1240.5,603.5 C 1243.95,602.756 1245.62,604.09 1245.5,607.5C 1243.4,607.799 1241.4,607.466 1239.5,606.5C 1240.13,605.583 1240.46,604.583 1240.5,603.5 Z"/></g>
<g><path style="opacity:1" fill="#1514ff" d="M 1257.5,603.5 C 1258.57,602.566 1259.9,602.232 1261.5,602.5C 1260.96,606.673 1261.62,610.506 1263.5,614C 1261.5,614.667 1259.5,614.667 1257.5,614C 1258.72,612.475 1259.39,610.641 1259.5,608.5C 1259.44,606.36 1258.78,604.694 1257.5,603.5 Z"/></g>
<g><path style="opacity:1" fill="#5145ff" d="M 324.5,603.5 C 323.581,606.089 321.914,608.089 319.5,609.5C 320.419,606.911 322.086,604.911 324.5,603.5 Z"/></g>
<g><path style="opacity:1" fill="#685aff" d="M 1219.5,603.5 C 1220.79,602.355 1221.96,602.689 1223,604.5C 1223.33,607.5 1223.67,610.5 1224,613.5C 1225.04,609.774 1225.54,610.107 1225.5,614.5C 1222.56,613.16 1219.89,613.493 1217.5,615.5C 1213.72,614.538 1212.72,612.371 1214.5,609C 1216.35,607.872 1218.35,607.372 1220.5,607.5C 1220.77,605.901 1220.43,604.568 1219.5,603.5 Z"/></g>
<g><path style="opacity:1" fill="#4c3cff" d="M 1267.5,599.5 C 1268.4,600.209 1268.74,601.209 1268.5,602.5C 1273.83,602.833 1273.83,603.167 1268.5,603.5C 1268.34,606.518 1268.5,609.518 1269,612.5C 1271.56,613.646 1272.89,612.646 1273,609.5C 1274.08,612.237 1273.25,613.904 1270.5,614.5C 1268.97,614.471 1267.8,613.804 1267,612.5C 1267.02,608.991 1266.19,605.825 1264.5,603C 1266.43,602.578 1267.43,601.411 1267.5,599.5 Z"/></g>
<g><path style="opacity:1" fill="#5149ff" d="M 1278.5,602.5 C 1279.24,602.369 1279.91,602.536 1280.5,603C 1278.96,604.11 1278.3,605.61 1278.5,607.5C 1280.5,607.5 1282.5,607.5 1284.5,607.5C 1284.7,605.61 1284.04,604.11 1282.5,603C 1285.78,603.138 1287.11,604.971 1286.5,608.5C 1283.83,608.5 1281.17,608.5 1278.5,608.5C 1278.81,610.446 1278.81,612.113 1278.5,613.5C 1274.63,609.926 1274.63,606.259 1278.5,602.5 Z"/></g>
<g><path style="opacity:1" fill="#fcfcfe" d="M 1217.5,608.5 C 1218.5,608.5 1219.5,608.5 1220.5,608.5C 1221.17,612.5 1219.5,614.167 1215.5,613.5C 1215.39,611.486 1216.06,609.82 1217.5,608.5 Z"/></g>
<g><path style="opacity:1" fill="#dedede" d="M 426.5,612.5 C 428.12,613.841 429.12,615.674 429.5,618C 429.009,626.544 429.009,634.877 429.5,643C 430.56,646.792 431.56,650.626 432.5,654.5C 431.529,655.962 431.862,657.295 433.5,658.5C 432.529,659.962 432.862,661.295 434.5,662.5C 434.431,664.278 434.097,666.111 433.5,668C 435.533,670.731 437.199,673.731 438.5,677C 450.383,716.874 474.383,749.041 510.5,773.5C 507.167,775.5 503.833,777.5 500.5,779.5C 492.41,782.379 484.743,786.046 477.5,790.5C 469.41,793.379 461.743,797.046 454.5,801.5C 450.066,802.883 445.733,804.549 441.5,806.5C 413.157,743.678 408.157,679.011 426.5,612.5 Z"/></g>
<g><path style="opacity:1" fill="#7b72ff" d="M 1206.5,613.5 C 1206.5,613.833 1206.5,614.167 1206.5,614.5C 1203.79,615.123 1201.12,615.123 1198.5,614.5C 1197.17,612.5 1197.17,610.5 1198.5,608.5C 1199.54,612.689 1202.2,614.355 1206.5,613.5 Z"/></g>
<g><path style="opacity:1" fill="#5449ff" d="M 319.5,609.5 C 316.589,614.746 312.922,619.413 308.5,623.5C 311.411,618.254 315.078,613.587 319.5,609.5 Z"/></g>
<g><path style="opacity:1" fill="#4c42ff" d="M 1165.5,618.5 C 1164.62,621.704 1162.95,624.371 1160.5,626.5C 1161.38,623.296 1163.05,620.629 1165.5,618.5 Z"/></g>
<g><path style="opacity:1" fill="#544bff" d="M 308.5,623.5 C 307.92,625.749 306.587,627.415 304.5,628.5C 305.08,626.251 306.413,624.585 308.5,623.5 Z"/></g>
<g><path style="opacity:1" fill="#443fff" d="M 1160.5,626.5 C 1160.57,628.027 1159.91,629.027 1158.5,629.5C 1158.43,627.973 1159.09,626.973 1160.5,626.5 Z"/></g>
<g><path style="opacity:1" fill="#4c46ff" d="M 304.5,628.5 C 304.262,630.404 303.262,631.738 301.5,632.5C 301.738,630.596 302.738,629.262 304.5,628.5 Z"/></g>
<g><path style="opacity:1" fill="#5147ff" d="M 1158.5,629.5 C 1156.91,633.683 1154.58,637.35 1151.5,640.5C 1153.09,636.317 1155.42,632.65 1158.5,629.5 Z"/></g>
<g><path style="opacity:1" fill="#544aff" d="M 301.5,632.5 C 300.92,634.749 299.587,636.415 297.5,637.5C 298.08,635.251 299.413,633.585 301.5,632.5 Z"/></g>
<g><path style="opacity:1" fill="#4740ff" d="M 297.5,637.5 C 297.262,639.404 296.262,640.738 294.5,641.5C 294.738,639.596 295.738,638.262 297.5,637.5 Z"/></g>
<g><path style="opacity:1" fill="#4540ff" d="M 1151.5,640.5 C 1151.57,642.027 1150.91,643.027 1149.5,643.5C 1149.43,641.973 1150.09,640.973 1151.5,640.5 Z"/></g>
<g><path style="opacity:1" fill="#d2a375" d="M 1117.5,634.5 C 1118.04,634.56 1118.38,634.893 1118.5,635.5C 1116.53,639.297 1114.37,642.964 1112,646.5C 1113.05,642.239 1114.88,638.239 1117.5,634.5 Z"/></g>
<g><path style="opacity:1" fill="#4a44ff" d="M 294.5,641.5 C 294.262,643.404 293.262,644.738 291.5,645.5C 291.738,643.596 292.738,642.262 294.5,641.5 Z"/></g>
<g><path style="opacity:1" fill="#d0a171" d="M 324.5,641.5 C 322.237,646.365 319.237,650.698 315.5,654.5C 317.763,649.635 320.763,645.302 324.5,641.5 Z"/></g>
<g><path style="opacity:1" fill="#554bff" d="M 291.5,645.5 C 289.984,648.533 287.984,651.2 285.5,653.5C 286.529,650.109 288.529,647.443 291.5,645.5 Z"/></g>
<g><path style="opacity:1" fill="#5349ff" d="M 1149.5,643.5 C 1144.28,653.049 1138.28,662.049 1131.5,670.5C 1136.76,660.976 1142.76,651.976 1149.5,643.5 Z"/></g>
<g><path style="opacity:1" fill="#d0a070" d="M 1100.5,664.5 C 1102.47,659.895 1104.97,655.562 1108,651.5C 1106.56,656.366 1104.06,660.7 1100.5,664.5 Z"/></g>
<g><path style="opacity:1" fill="#554bff" d="M 285.5,653.5 C 283.984,656.533 281.984,659.2 279.5,661.5C 280.529,658.109 282.529,655.443 285.5,653.5 Z"/></g>
<g><path style="opacity:1" fill="#524aff" d="M 279.5,661.5 C 279.262,663.404 278.262,664.738 276.5,665.5C 276.738,663.596 277.738,662.262 279.5,661.5 Z"/></g>
<g><path style="opacity:1" fill="#4940ff" d="M 276.5,665.5 C 276.262,667.404 275.262,668.738 273.5,669.5C 273.738,667.596 274.738,666.262 276.5,665.5 Z"/></g>
<g><path style="opacity:1" fill="#cf9f6e" d="M 1100.5,664.5 C 1098.58,669.343 1095.92,673.677 1092.5,677.5C 1094.42,672.657 1097.08,668.323 1100.5,664.5 Z"/></g>
<g><path style="opacity:1" fill="#4b45ff" d="M 1131.5,670.5 C 1131.57,672.027 1130.91,673.027 1129.5,673.5C 1129.43,671.973 1130.09,670.973 1131.5,670.5 Z"/></g>
<g><path style="opacity:1" fill="#564bff" d="M 273.5,669.5 C 272.567,672.37 270.9,674.704 268.5,676.5C 269.433,673.63 271.1,671.296 273.5,669.5 Z"/></g>
<g><path style="opacity:1" fill="#5247ff" d="M 1129.5,673.5 C 1127.94,677.392 1125.6,680.725 1122.5,683.5C 1124.06,679.608 1126.4,676.275 1129.5,673.5 Z"/></g>
<g><path style="opacity:1" fill="#5148ff" d="M 268.5,676.5 C 268.262,678.404 267.262,679.738 265.5,680.5C 265.738,678.596 266.738,677.262 268.5,676.5 Z"/></g>
<g><path style="opacity:1" fill="#d1a273" d="M 1092.5,677.5 C 1090.86,681.441 1088.69,685.108 1086,688.5C 1087.11,684.296 1089.27,680.629 1092.5,677.5 Z"/></g>
<g><path style="opacity:1" fill="#4b45ff" d="M 1122.5,683.5 C 1122.57,685.027 1121.91,686.027 1120.5,686.5C 1120.43,684.973 1121.09,683.973 1122.5,683.5 Z"/></g>
<g><path style="opacity:1" fill="#4c43ff" d="M 265.5,680.5 C 264.567,683.37 262.9,685.704 260.5,687.5C 261.433,684.63 263.1,682.296 265.5,680.5 Z"/></g>
<g><path style="opacity:1" fill="#423eff" d="M 260.5,687.5 C 260.573,689.027 259.906,690.027 258.5,690.5C 258.427,688.973 259.094,687.973 260.5,687.5 Z"/></g>
<g><path style="opacity:1" fill="#e2e2e1" d="M 793.5,697.5 C 793.631,698.239 793.464,698.906 793,699.5C 791.249,698.826 789.583,698.493 788,698.5C 782.696,710.213 775.862,721.38 767.5,732C 768.654,732.914 768.487,733.747 767,734.5C 764.337,735.823 762.004,738.156 760,741.5C 757.205,744.811 754.039,747.477 750.5,749.5C 749.448,749.351 748.448,749.517 747.5,750C 751.898,749.408 753.898,751.241 753.5,755.5C 751.097,755.448 748.764,755.781 746.5,756.5C 743.876,758.444 741.209,760.444 738.5,762.5C 737.5,762.5 736.5,762.5 735.5,762.5C 735.299,759.272 735.633,756.105 736.5,753C 735.557,750.019 733.557,749.019 730.5,750C 731.416,750.374 732.25,750.874 733,751.5C 733.499,755.152 733.665,758.818 733.5,762.5C 732.209,762.263 731.209,762.596 730.5,763.5C 732.151,764.919 733.984,766.253 736,767.5C 736.414,767.043 736.914,766.709 737.5,766.5C 738.648,768.149 739.981,769.649 741.5,771C 740.12,772.925 738.62,774.759 737,776.5C 735.434,777.061 734.101,776.394 733,774.5C 731.527,772.706 730.694,771.04 730.5,769.5C 671.921,810.462 609.254,817.962 542.5,792C 531.616,787.402 521.616,781.568 512.5,774.5C 515.696,773.071 518.696,771.405 521.5,769.5C 524.089,769.539 526.089,768.539 527.5,766.5C 532.919,764.956 537.919,762.622 542.5,759.5C 550.543,756.645 558.21,752.979 565.5,748.5C 566.873,748.657 568.207,748.49 569.5,748C 575.229,744.806 580.896,741.639 586.5,738.5C 586.842,737.662 587.508,737.328 588.5,737.5C 595.208,735.313 601.541,732.313 607.5,728.5C 607.842,727.662 608.508,727.328 609.5,727.5C 616.876,724.979 623.876,721.646 630.5,717.5C 631.873,717.657 633.207,717.49 634.5,717C 640.229,713.806 645.896,710.639 651.5,707.5C 652.873,707.657 654.207,707.49 655.5,707C 661.229,703.806 666.896,700.639 672.5,697.5C 672.842,696.662 673.508,696.328 674.5,696.5C 680.146,694.101 685.98,692.101 692,690.5C 725.826,693.02 759.659,695.354 793.5,697.5 Z"/></g>
<g><path style="opacity:1" fill="#554bff" d="M 1120.5,686.5 C 1119.57,689.37 1117.9,691.704 1115.5,693.5C 1116.43,690.63 1118.1,688.296 1120.5,686.5 Z"/></g>
<g><path style="opacity:1" fill="#d0a070" d="M 1082.5,691.5 C 1083.46,692.721 1083.3,694.054 1082,695.5C 1079.67,698.833 1077.33,702.167 1075,705.5C 1074.68,704.092 1075.02,702.759 1076,701.5C 1078.43,698.309 1080.59,694.975 1082.5,691.5 Z"/></g>
<g><path style="opacity:1" fill="#564cff" d="M 258.5,690.5 C 257.567,693.37 255.9,695.704 253.5,697.5C 254.433,694.63 256.1,692.296 258.5,690.5 Z"/></g>
<g><path style="opacity:1" fill="#dcdcdc" d="M 793.5,697.5 C 832.845,699.634 872.179,701.967 911.5,704.5C 910.722,705.156 910.056,705.989 909.5,707C 886.362,793.212 834.029,855.878 752.5,895C 667.8,931.085 584.467,928.252 502.5,886.5C 501.702,886.957 501.369,887.624 501.5,888.5C 477.234,865.233 457.568,838.566 442.5,808.5C 446.5,806.167 450.5,803.833 454.5,801.5C 462.543,798.645 470.21,794.979 477.5,790.5C 485.543,787.645 493.21,783.979 500.5,779.5C 504.885,778.787 508.885,777.121 512.5,774.5C 521.616,781.568 531.616,787.402 542.5,792C 609.254,817.962 671.921,810.462 730.5,769.5C 730.694,771.04 731.527,772.706 733,774.5C 734.101,776.394 735.434,777.061 737,776.5C 738.62,774.759 740.12,772.925 741.5,771C 739.981,769.649 738.648,768.149 737.5,766.5C 736.914,766.709 736.414,767.043 736,767.5C 733.984,766.253 732.151,764.919 730.5,763.5C 733.615,765.177 736.282,764.844 738.5,762.5C 741.209,760.444 743.876,758.444 746.5,756.5C 743.078,762.256 744.745,764.756 751.5,764C 746.042,762.785 745.375,760.452 749.5,757C 750.793,756.51 752.127,756.343 753.5,756.5C 753.016,759.798 754.016,762.464 756.5,764.5C 759.131,762.995 758.797,762.329 755.5,762.5C 755.665,758.818 755.499,755.152 755,751.5C 753.89,749.963 752.39,749.297 750.5,749.5C 754.039,747.477 757.205,744.811 760,741.5C 762.004,738.156 764.337,735.823 767,734.5C 768.487,733.747 768.654,732.914 767.5,732C 775.862,721.38 782.696,710.213 788,698.5C 789.583,698.493 791.249,698.826 793,699.5C 793.464,698.906 793.631,698.239 793.5,697.5 Z"/></g>
<g><path style="opacity:1" fill="#4b44ff" d="M 253.5,697.5 C 253.573,699.027 252.906,700.027 251.5,700.5C 251.427,698.973 252.094,697.973 253.5,697.5 Z"/></g>
<g><path style="opacity:1" fill="#4b42ff" d="M 1115.5,693.5 C 1114.57,696.37 1112.9,698.704 1110.5,700.5C 1111.43,697.63 1113.1,695.296 1115.5,693.5 Z"/></g>
<g><path style="opacity:1" fill="#4c4c4c" d="M 672.5,697.5 C 666.896,700.639 661.229,703.806 655.5,707C 654.207,707.49 652.873,707.657 651.5,707.5C 658.077,703.379 665.077,700.046 672.5,697.5 Z"/></g>
<g><path style="opacity:1" fill="#5147ff" d="M 251.5,700.5 C 249.938,704.392 247.605,707.725 244.5,710.5C 246.062,706.608 248.395,703.275 251.5,700.5 Z"/></g>
<g><path style="opacity:1" fill="#d9d9d9" d="M 911.5,704.5 C 928.974,705.624 946.308,706.957 963.5,708.5C 962.5,708.5 961.5,708.5 960.5,708.5C 950.884,806.87 903.55,880.703 818.5,930C 749.144,965.729 677.144,972.062 602.5,949C 564.361,935.946 530.694,915.779 501.5,888.5C 501.369,887.624 501.702,886.957 502.5,886.5C 584.467,928.252 667.8,931.085 752.5,895C 834.029,855.878 886.362,793.212 909.5,707C 910.056,705.989 910.722,705.156 911.5,704.5 Z"/></g>
<g><path style="opacity:1" fill="#564bff" d="M 1110.5,700.5 C 1108.6,704.732 1105.93,708.399 1102.5,711.5C 1104.4,707.268 1107.07,703.601 1110.5,700.5 Z"/></g>
<g><path style="opacity:1" fill="#d09f6e" d="M 285.5,700.5 C 283.582,705.343 280.916,709.677 277.5,713.5C 279.418,708.657 282.084,704.323 285.5,700.5 Z"/></g>
<g><path style="opacity:1" fill="#505050" d="M 651.5,707.5 C 645.896,710.639 640.229,713.806 634.5,717C 633.207,717.49 631.873,717.657 630.5,717.5C 637.077,713.379 644.077,710.046 651.5,707.5 Z"/></g>
<g><path style="opacity:1" fill="#4641ff" d="M 244.5,710.5 C 244.573,712.027 243.906,713.027 242.5,713.5C 242.427,711.973 243.094,710.973 244.5,710.5 Z"/></g>
<g><path style="opacity:1" fill="#4941ff" d="M 1102.5,711.5 C 1102.27,713.062 1101.6,714.395 1100.5,715.5C 1099.83,715.5 1099.5,715.167 1099.5,714.5C 1100.17,713.167 1101.17,712.167 1102.5,711.5 Z"/></g>
<g><path style="opacity:1" fill="#1c1c1c" d="M 1224.5,729.5 C 1223.85,730.091 1223.18,730.757 1222.5,731.5C 1221.89,731.376 1221.56,731.043 1221.5,730.5C 1223.13,724.903 1222.47,719.569 1219.5,714.5C 1220.32,713.614 1221.32,713.281 1222.5,713.5C 1222.78,717.178 1224.11,720.345 1226.5,723C 1224.98,724.897 1224.32,727.064 1224.5,729.5 Z"/></g>
<g><path style="opacity:1" fill="#4e48ff" d="M 242.5,713.5 C 242.573,715.027 241.906,716.027 240.5,716.5C 240.427,714.973 241.094,713.973 242.5,713.5 Z"/></g>
<g><path style="opacity:1" fill="#fbf8f7" d="M 1067.5,714.5 C 1077.49,715.261 1087.49,715.928 1097.5,716.5C 1096.89,717.391 1096.56,718.391 1096.5,719.5C 1092.74,722.929 1089.74,726.929 1087.5,731.5C 1085.74,732.262 1084.74,733.596 1084.5,735.5C 1082.74,736.262 1081.74,737.596 1081.5,739.5C 1079.74,740.262 1078.74,741.596 1078.5,743.5C 1076.41,744.585 1075.08,746.251 1074.5,748.5C 1072.74,749.262 1071.74,750.596 1071.5,752.5C 1069.41,753.585 1068.08,755.251 1067.5,757.5C 1064.36,760.46 1061.69,763.793 1059.5,767.5C 1056.36,770.46 1053.69,773.793 1051.5,777.5C 1049.41,778.585 1048.08,780.251 1047.5,782.5C 1045.09,783.911 1043.42,785.911 1042.5,788.5C 1038.69,792.122 1035.36,796.122 1032.5,800.5C 1030.09,801.911 1028.42,803.911 1027.5,806.5C 1023.03,810.785 1019.03,815.452 1015.5,820.5C 1012.43,822.569 1010.09,825.236 1008.5,828.5C 1005.43,830.569 1003.09,833.236 1001.5,836.5C 998.097,838.9 995.43,841.9 993.5,845.5C 989.766,848.231 986.766,851.564 984.5,855.5C 980.102,858.895 976.436,862.895 973.5,867.5C 945.194,896.14 916.861,924.806 888.5,953.5C 882.224,958.107 876.557,963.441 871.5,969.5C 866.895,972.436 862.895,976.102 859.5,980.5C 855.897,982.763 852.564,985.43 849.5,988.5C 851.833,985.167 854.167,981.833 856.5,978.5C 856.833,977.5 857.5,976.833 858.5,976.5C 864.892,971.11 870.559,965.11 875.5,958.5C 879.566,955.437 882.899,951.771 885.5,947.5C 885.833,946.5 886.5,945.833 887.5,945.5C 891.234,942.769 894.234,939.436 896.5,935.5C 899.903,933.1 902.57,930.1 904.5,926.5C 907.903,924.1 910.57,921.1 912.5,917.5C 928.932,897.639 945.598,877.972 962.5,858.5C 965.645,855.54 968.312,852.207 970.5,848.5C 971.08,846.251 972.413,844.585 974.5,843.5C 977.556,841.051 979.889,838.051 981.5,834.5C 986.408,826.59 992.075,819.257 998.5,812.5C 1002.59,808.742 1005.93,804.409 1008.5,799.5C 1012.9,795.041 1016.56,790.041 1019.5,784.5C 1029.92,769.316 1040.59,754.316 1051.5,739.5C 1054.6,736.725 1056.94,733.392 1058.5,729.5C 1061.24,724.362 1064.24,719.362 1067.5,714.5 Z"/></g>
<g><path style="opacity:1" fill="#4943ff" d="M 1097.5,716.5 C 1098.17,716.5 1098.83,716.5 1099.5,716.5C 1098.83,717.833 1097.83,718.833 1096.5,719.5C 1096.56,718.391 1096.89,717.391 1097.5,716.5 Z"/></g>
<g><path style="opacity:1" fill="#5149ff" d="M 240.5,716.5 C 240.573,718.027 239.906,719.027 238.5,719.5C 238.427,717.973 239.094,716.973 240.5,716.5 Z"/></g>
<g><path style="opacity:1" fill="#d0a071" d="M 277.5,713.5 C 274.619,720.033 270.953,726.033 266.5,731.5C 269.381,724.967 273.047,718.967 277.5,713.5 Z"/></g>
<g><path style="opacity:1" fill="#5e5e5e" d="M 1232.5,713.5 C 1233.55,713.351 1234.55,713.517 1235.5,714C 1233.36,716.14 1231.19,718.306 1229,720.5C 1229.83,718.123 1230.99,715.789 1232.5,713.5 Z"/></g>
<g><path style="opacity:1" fill="#141414" d="M 1191.5,722.5 C 1192.83,721.833 1194.17,721.167 1195.5,720.5C 1195.37,719.624 1195.7,718.957 1196.5,718.5C 1199,719.58 1201.33,720.914 1203.5,722.5C 1201.11,723.349 1198.77,724.349 1196.5,725.5C 1195.61,724.675 1195.28,723.675 1195.5,722.5C 1194.17,722.5 1192.83,722.5 1191.5,722.5 Z"/></g>
<g><path style="opacity:1" fill="#4d4d4d" d="M 630.5,717.5 C 623.876,721.646 616.876,724.979 609.5,727.5C 616.077,723.379 623.077,720.046 630.5,717.5 Z"/></g>
<g><path style="opacity:1" fill="#5044ff" d="M 238.5,719.5 C 236.327,723.852 233.66,727.852 230.5,731.5C 232.178,726.803 234.844,722.803 238.5,719.5 Z"/></g>
<g><path style="opacity:1" fill="#564bff" d="M 1096.5,719.5 C 1094.26,724.071 1091.26,728.071 1087.5,731.5C 1089.74,726.929 1092.74,722.929 1096.5,719.5 Z"/></g>
<g><path style="opacity:1" fill="#4b4b4b" d="M 607.5,728.5 C 601.541,732.313 595.208,735.313 588.5,737.5C 594.412,733.712 600.745,730.712 607.5,728.5 Z"/></g>
<g><path style="opacity:1" fill="#8a8889" d="M 1224.5,729.5 C 1225.09,730.151 1225.76,730.818 1226.5,731.5C 1223.83,732.833 1221.17,732.833 1218.5,731.5C 1219.32,730.614 1220.32,730.281 1221.5,730.5C 1221.56,731.043 1221.89,731.376 1222.5,731.5C 1223.18,730.757 1223.85,730.091 1224.5,729.5 Z"/></g>
<g><path style="opacity:1" fill="#5148ff" d="M 230.5,731.5 C 230.573,733.027 229.906,734.027 228.5,734.5C 228.427,732.973 229.094,731.973 230.5,731.5 Z"/></g>
<g><path style="opacity:1" fill="#d0a070" d="M 1058.5,729.5 C 1056.94,733.392 1054.6,736.725 1051.5,739.5C 1053.06,735.608 1055.4,732.275 1058.5,729.5 Z"/></g>
<g><path style="opacity:1" fill="#493fff" d="M 1087.5,731.5 C 1087.26,733.404 1086.26,734.738 1084.5,735.5C 1084.74,733.596 1085.74,732.262 1087.5,731.5 Z"/></g>
<g><path style="opacity:1" fill="#4a43ff" d="M 228.5,734.5 C 228.573,736.027 227.906,737.027 226.5,737.5C 226.427,735.973 227.094,734.973 228.5,734.5 Z"/></g>
<g><path style="opacity:1" fill="#4c45ff" d="M 1084.5,735.5 C 1084.26,737.404 1083.26,738.738 1081.5,739.5C 1081.74,737.596 1082.74,736.262 1084.5,735.5 Z"/></g>
<g><path style="opacity:1" fill="#4d4d4d" d="M 586.5,738.5 C 580.896,741.639 575.229,744.806 569.5,748C 568.207,748.49 566.873,748.657 565.5,748.5C 572.077,744.379 579.077,741.046 586.5,738.5 Z"/></g>
<g><path style="opacity:1" fill="#c89058" d="M 683.5,741.5 C 690.5,741.5 697.5,741.5 704.5,741.5C 704.663,743.857 704.497,746.19 704,748.5C 703.56,743.237 700.727,741.237 695.5,742.5C 695.5,749.167 695.5,755.833 695.5,762.5C 697.199,762.34 698.866,762.506 700.5,763C 700,763.5 699.5,764 699,764.5C 695.865,764.455 692.698,764.455 689.5,764.5C 689.167,764.167 688.833,763.833 688.5,763.5C 689.689,762.571 691.022,762.238 692.5,762.5C 692.5,755.833 692.5,749.167 692.5,742.5C 687.311,741.191 684.478,743.191 684,748.5C 683.503,746.19 683.337,743.857 683.5,741.5 Z"/></g>
<g><path style="opacity:1" fill="#4a43ff" d="M 1081.5,739.5 C 1081.26,741.404 1080.26,742.738 1078.5,743.5C 1078.74,741.596 1079.74,740.262 1081.5,739.5 Z"/></g>
<g><path style="opacity:1" fill="#d1a374" d="M 263.5,736.5 C 261.957,741.024 259.623,745.024 256.5,748.5C 258.043,743.976 260.377,739.976 263.5,736.5 Z"/></g>
<g><path style="opacity:1" fill="#5d52ff" d="M 1078.5,743.5 C 1077.92,745.749 1076.59,747.415 1074.5,748.5C 1075.08,746.251 1076.41,744.585 1078.5,743.5 Z"/></g>
<g><path style="opacity:1" fill="#5146ff" d="M 226.5,737.5 C 224.281,742.709 221.281,747.376 217.5,751.5C 219.719,746.291 222.719,741.624 226.5,737.5 Z"/></g>
<g><path style="opacity:1" fill="#c78e55" d="M 738.5,762.5 C 736.282,764.844 733.615,765.177 730.5,763.5C 731.209,762.596 732.209,762.263 733.5,762.5C 733.665,758.818 733.499,755.152 733,751.5C 732.25,750.874 731.416,750.374 730.5,750C 733.557,749.019 735.557,750.019 736.5,753C 735.633,756.105 735.299,759.272 735.5,762.5C 736.5,762.5 737.5,762.5 738.5,762.5 Z"/></g>
<g><path style="opacity:1" fill="#4c46ff" d="M 1074.5,748.5 C 1074.26,750.404 1073.26,751.738 1071.5,752.5C 1071.74,750.596 1072.74,749.262 1074.5,748.5 Z"/></g>
<g><path style="opacity:1" fill="#505050" d="M 565.5,748.5 C 558.21,752.979 550.543,756.645 542.5,759.5C 549.743,755.046 557.41,751.379 565.5,748.5 Z"/></g>
<g><path style="opacity:1" fill="#cb9662" d="M 709.5,748.5 C 714.606,748.7 716.939,751.367 716.5,756.5C 713.167,756.5 709.833,756.5 706.5,756.5C 706.482,760.637 708.482,763.137 712.5,764C 709.044,764.855 706.544,763.689 705,760.5C 703.309,755.131 704.809,751.131 709.5,748.5 Z"/></g>
<g><path style="opacity:1" fill="#dfdede" d="M 708.5,750.5 C 711.833,749.833 713.833,751.167 714.5,754.5C 711.833,755.833 709.167,755.833 706.5,754.5C 707.18,753.14 707.847,751.807 708.5,750.5 Z"/></g>
<g><path style="opacity:1" fill="#cb9661" d="M 718.5,750.5 C 721.122,749.888 723.788,749.555 726.5,749.5C 728,749.453 729,750.119 729.5,751.5C 727.683,751.745 726.016,751.745 724.5,751.5C 723.509,755.445 723.176,759.445 723.5,763.5C 721.554,763.807 719.887,763.807 718.5,763.5C 719.694,761.377 720.36,759.043 720.5,756.5C 720.461,754.048 719.794,752.048 718.5,750.5 Z"/></g>
<g><path style="opacity:1" fill="#4f46ff" d="M 217.5,751.5 C 216.617,754.704 214.95,757.371 212.5,759.5C 213.383,756.296 215.05,753.629 217.5,751.5 Z"/></g>
<g><path style="opacity:1" fill="#574cff" d="M 1071.5,752.5 C 1070.92,754.749 1069.59,756.415 1067.5,757.5C 1068.08,755.251 1069.41,753.585 1071.5,752.5 Z"/></g>
<g><path style="opacity:1" fill="#c78f57" d="M 750.5,749.5 C 752.39,749.297 753.89,749.963 755,751.5C 755.499,755.152 755.665,758.818 755.5,762.5C 758.797,762.329 759.131,762.995 756.5,764.5C 754.016,762.464 753.016,759.798 753.5,756.5C 752.127,756.343 750.793,756.51 749.5,757C 745.375,760.452 746.042,762.785 751.5,764C 744.745,764.756 743.078,762.256 746.5,756.5C 748.764,755.781 751.097,755.448 753.5,755.5C 753.898,751.241 751.898,749.408 747.5,750C 748.448,749.517 749.448,749.351 750.5,749.5 Z"/></g>
<g><path style="opacity:1" fill="#564bff" d="M 1067.5,757.5 C 1065.79,761.572 1063.13,764.905 1059.5,767.5C 1061.69,763.793 1064.36,760.46 1067.5,757.5 Z"/></g>
<g><path style="opacity:1" fill="#5246ff" d="M 212.5,759.5 C 210.582,764.343 207.916,768.677 204.5,772.5C 206.418,767.657 209.084,763.323 212.5,759.5 Z"/></g>
<g><path style="opacity:1" fill="#363636" d="M 542.5,759.5 C 537.919,762.622 532.919,764.956 527.5,766.5C 532.081,763.378 537.081,761.044 542.5,759.5 Z"/></g>
<g><path style="opacity:1" fill="#3e3e3e" d="M 527.5,766.5 C 526.089,768.539 524.089,769.539 521.5,769.5C 523.033,767.755 525.033,766.755 527.5,766.5 Z"/></g>
<g><path style="opacity:1" fill="#544aff" d="M 1059.5,767.5 C 1057.79,771.572 1055.13,774.905 1051.5,777.5C 1053.69,773.793 1056.36,770.46 1059.5,767.5 Z"/></g>
<g><path style="opacity:1" fill="#d1a173" d="M 244.5,769.5 C 241.67,775.83 238.337,781.83 234.5,787.5C 236.823,780.847 240.156,774.847 244.5,769.5 Z"/></g>
<g><path style="opacity:1" fill="#4a41ff" d="M 204.5,772.5 C 204.25,774.674 203.25,776.341 201.5,777.5C 201.75,775.326 202.75,773.659 204.5,772.5 Z"/></g>
<g><path style="opacity:1" fill="#454545" d="M 521.5,769.5 C 518.696,771.405 515.696,773.071 512.5,774.5C 508.885,777.121 504.885,778.787 500.5,779.5C 503.833,777.5 507.167,775.5 510.5,773.5C 514.069,771.881 517.736,770.548 521.5,769.5 Z"/></g>
<g><path style="opacity:1" fill="#4a41ff" d="M 201.5,777.5 C 201.25,779.674 200.25,781.341 198.5,782.5C 198.75,780.326 199.75,778.659 201.5,777.5 Z"/></g>
<g><path style="opacity:1" fill="#524aff" d="M 1051.5,777.5 C 1050.92,779.749 1049.59,781.415 1047.5,782.5C 1048.08,780.251 1049.41,778.585 1051.5,777.5 Z"/></g>
<g><path style="opacity:1" fill="#4840ff" d="M 198.5,782.5 C 198.25,784.674 197.25,786.341 195.5,787.5C 195.75,785.326 196.75,783.659 198.5,782.5 Z"/></g>
<g><path style="opacity:1" fill="#484748" d="M 500.5,779.5 C 493.21,783.979 485.543,787.645 477.5,790.5C 484.743,786.046 492.41,782.379 500.5,779.5 Z"/></g>
<g><path style="opacity:1" fill="#5a4eff" d="M 1047.5,782.5 C 1046.58,785.089 1044.91,787.089 1042.5,788.5C 1043.42,785.911 1045.09,783.911 1047.5,782.5 Z"/></g>
<g><path style="opacity:1" fill="#4d43ff" d="M 1042.5,788.5 C 1040.12,793.248 1036.78,797.248 1032.5,800.5C 1035.36,796.122 1038.69,792.122 1042.5,788.5 Z"/></g>
<g><path style="opacity:1" fill="#d4a77b" d="M 233.5,789.5 C 231.893,794.391 229.56,798.724 226.5,802.5C 228.074,797.68 230.407,793.347 233.5,789.5 Z"/></g>
<g><path style="opacity:1" fill="#4f45ff" d="M 195.5,787.5 C 193.957,792.024 191.623,796.024 188.5,799.5C 190.043,794.976 192.377,790.976 195.5,787.5 Z"/></g>
<g><path style="opacity:1" fill="#494949" d="M 477.5,790.5 C 470.21,794.979 462.543,798.645 454.5,801.5C 461.743,797.046 469.41,793.379 477.5,790.5 Z"/></g>
<g><path style="opacity:1" fill="#d1a374" d="M 1019.5,784.5 C 1016.56,790.041 1012.9,795.041 1008.5,799.5C 1011.44,793.959 1015.1,788.959 1019.5,784.5 Z"/></g>
<g><path style="opacity:1" fill="#535353" d="M 454.5,801.5 C 450.5,803.833 446.5,806.167 442.5,808.5C 439.792,810.353 436.792,811.353 433.5,811.5C 436.167,809.833 438.833,808.167 441.5,806.5C 445.733,804.549 450.066,802.883 454.5,801.5 Z"/></g>
<g><path style="opacity:1" fill="#5349ff" d="M 1032.5,800.5 C 1031.58,803.089 1029.91,805.089 1027.5,806.5C 1028.42,803.911 1030.09,801.911 1032.5,800.5 Z"/></g>
<g><path style="opacity:1" fill="#5047ff" d="M 188.5,799.5 C 186.293,805.35 183.293,810.684 179.5,815.5C 181.707,809.65 184.707,804.316 188.5,799.5 Z"/></g>
<g><path style="opacity:1" fill="#d1a273" d="M 1008.5,799.5 C 1005.93,804.409 1002.59,808.742 998.5,812.5C 1001.07,807.591 1004.41,803.258 1008.5,799.5 Z"/></g>
<g><path style="opacity:1" fill="#5f53ff" d="M 1027.5,806.5 C 1024.45,811.92 1020.45,816.587 1015.5,820.5C 1019.03,815.452 1023.03,810.785 1027.5,806.5 Z"/></g>
<g><path style="opacity:1" fill="#585757" d="M 433.5,811.5 C 428.563,814.306 423.563,817.139 418.5,820C 417.167,820.667 415.833,820.667 414.5,820C 420.629,816.6 426.963,813.766 433.5,811.5 Z"/></g>
<g><path style="opacity:1" fill="#5047ff" d="M 178.5,817.5 C 177.59,820.992 175.924,823.992 173.5,826.5C 174.41,823.008 176.076,820.008 178.5,817.5 Z"/></g>
<g><path style="opacity:1" fill="#565656" d="M 391.5,831.5 C 398.047,827.224 405.047,824.058 412.5,822C 406.675,824.745 401.008,827.745 395.5,831C 394.207,831.49 392.873,831.657 391.5,831.5 Z"/></g>
<g><path style="opacity:1" fill="#d1a274" d="M 224.5,806.5 C 218.008,820.818 211.008,834.818 203.5,848.5C 209.459,833.914 216.459,819.914 224.5,806.5 Z"/></g>
<g><path style="opacity:1" fill="#544aff" d="M 1015.5,820.5 C 1013.91,823.764 1011.57,826.431 1008.5,828.5C 1010.09,825.236 1012.43,822.569 1015.5,820.5 Z"/></g>
<g><path style="opacity:1" fill="#554aff" d="M 1008.5,828.5 C 1006.91,831.764 1004.57,834.431 1001.5,836.5C 1003.09,833.236 1005.43,830.569 1008.5,828.5 Z"/></g>
<g><path style="opacity:1" fill="#584dff" d="M 173.5,826.5 C 170.927,833.315 167.594,839.649 163.5,845.5C 166.052,838.728 169.386,832.394 173.5,826.5 Z"/></g>
<g><path style="opacity:1" fill="#d0a171" d="M 981.5,834.5 C 979.889,838.051 977.556,841.051 974.5,843.5C 976.111,839.949 978.444,836.949 981.5,834.5 Z"/></g>
<g><path style="opacity:1" fill="#5a5959" d="M 391.5,831.5 C 384.21,835.979 376.543,839.645 368.5,842.5C 375.743,838.046 383.41,834.379 391.5,831.5 Z"/></g>
<g><path style="opacity:1" fill="#594cff" d="M 1001.5,836.5 C 999.57,840.1 996.903,843.1 993.5,845.5C 995.43,841.9 998.097,838.9 1001.5,836.5 Z"/></g>
<g><path style="opacity:1" fill="#575656" d="M 368.5,842.5 C 362.896,845.639 357.229,848.806 351.5,852C 350.207,852.49 348.873,852.657 347.5,852.5C 354.077,848.379 361.077,845.046 368.5,842.5 Z"/></g>
<g><path style="opacity:1" fill="#d09f6f" d="M 970.5,848.5 C 968.312,852.207 965.645,855.54 962.5,858.5C 964.208,854.428 966.874,851.095 970.5,848.5 Z"/></g>
<g><path style="opacity:1" fill="#5548ff" d="M 993.5,845.5 C 991.234,849.436 988.234,852.769 984.5,855.5C 986.766,851.564 989.766,848.231 993.5,845.5 Z"/></g>
<g><path style="opacity:1" fill="#5044ff" d="M 162.5,847.5 C 160.008,853.818 157.008,859.818 153.5,865.5C 155.46,858.914 158.46,852.914 162.5,847.5 Z"/></g>
<g><path style="opacity:1" fill="#555555" d="M 347.5,852.5 C 340.876,856.646 333.876,859.979 326.5,862.5C 333.077,858.379 340.077,855.046 347.5,852.5 Z"/></g>
<g><path style="opacity:1" fill="#d0a274" d="M 200.5,854.5 C 199.624,858.582 197.957,862.249 195.5,865.5C 196.376,861.418 198.043,857.751 200.5,854.5 Z"/></g>
<g><path style="opacity:1" fill="#594aff" d="M 984.5,855.5 C 981.564,860.105 977.898,864.105 973.5,867.5C 976.436,862.895 980.102,858.895 984.5,855.5 Z"/></g>
<g><path style="opacity:1" fill="#575656" d="M 326.5,862.5 C 319.21,866.979 311.543,870.645 303.5,873.5C 310.743,869.046 318.41,865.379 326.5,862.5 Z"/></g>
<g><path style="opacity:1" fill="#d3a578" d="M 195.5,865.5 C 194.649,869.535 192.983,873.202 190.5,876.5C 191.376,872.418 193.043,868.751 195.5,865.5 Z"/></g>
<g><path style="opacity:1" fill="#5b4eff" d="M 150.5,871.5 C 148.981,876.872 146.647,881.872 143.5,886.5C 145.044,881.081 147.378,876.081 150.5,871.5 Z"/></g>
<g><path style="opacity:1" fill="#595959" d="M 303.5,873.5 C 297.896,876.639 292.229,879.806 286.5,883C 285.207,883.49 283.873,883.657 282.5,883.5C 289.077,879.379 296.077,876.046 303.5,873.5 Z"/></g>
<g><path style="opacity:1" fill="#2a2a2a" d="M 282.5,883.5 C 281.4,884.558 280.066,885.392 278.5,886C 280.166,891.955 282.499,897.955 285.5,904C 284.167,904.667 282.833,904.667 281.5,904C 281.833,903.667 282.167,903.333 282.5,903C 281.782,901.013 280.782,899.179 279.5,897.5C 277.35,899.149 275.35,900.982 273.5,903C 273.957,903.414 274.291,903.914 274.5,904.5C 272.5,905.833 270.5,905.833 268.5,904.5C 272.081,902.427 275.248,899.76 278,896.5C 278.459,893.07 277.459,890.07 275,887.5C 273.247,888.627 271.413,889.627 269.5,890.5C 268.269,891.651 268.269,892.817 269.5,894C 266.167,894.667 262.833,894.667 259.5,894C 261.684,891.984 263.684,889.817 265.5,887.5C 266.216,888.311 267.05,888.978 268,889.5C 272.44,886.529 277.273,884.529 282.5,883.5 Z"/></g>
<g><path style="opacity:1" fill="#747374" d="M 284.5,885.5 C 286.604,885.201 288.604,885.534 290.5,886.5C 288.807,887.228 287.307,888.228 286,889.5C 285.209,888.255 284.709,886.922 284.5,885.5 Z"/></g>
<g><path style="opacity:1" fill="#5249ff" d="M 143.5,886.5 C 142.624,890.582 140.957,894.249 138.5,897.5C 139.376,893.418 141.043,889.751 143.5,886.5 Z"/></g>
<g><path style="opacity:1" fill="#5448ff" d="M 138.5,897.5 C 136.293,904.906 133.293,911.906 129.5,918.5C 131.707,911.094 134.707,904.094 138.5,897.5 Z"/></g>
<g><path style="opacity:1" fill="#584bff" d="M 973.5,867.5 C 968.9,873.275 964.066,878.941 959,884.5C 935.916,908.086 912.416,931.086 888.5,953.5C 916.861,924.806 945.194,896.14 973.5,867.5 Z"/></g>
<g><path style="opacity:1" fill="#d1a172" d="M 178.5,904.5 C 176.403,911.47 173.737,918.136 170.5,924.5C 172.205,917.371 174.872,910.704 178.5,904.5 Z"/></g>
<g><path style="opacity:1" fill="#5149ff" d="M 129.5,918.5 C 129.598,920.553 128.931,922.22 127.5,923.5C 127.402,921.447 128.069,919.78 129.5,918.5 Z"/></g>
<g><path style="opacity:1" fill="#d1a273" d="M 912.5,917.5 C 910.57,921.1 907.903,924.1 904.5,926.5C 906.43,922.9 909.097,919.9 912.5,917.5 Z"/></g>
<g><path style="opacity:1" fill="#534bff" d="M 127.5,923.5 C 126.737,927.137 125.403,930.47 123.5,933.5C 123.872,929.703 125.206,926.37 127.5,923.5 Z"/></g>
<g><path style="opacity:1" fill="#d1a274" d="M 904.5,926.5 C 902.57,930.1 899.903,933.1 896.5,935.5C 898.43,931.9 901.097,928.9 904.5,926.5 Z"/></g>
<g><path style="opacity:1" fill="#574dff" d="M 123.5,933.5 C 122.796,938.29 121.129,942.623 118.5,946.5C 119.37,941.777 121.036,937.444 123.5,933.5 Z"/></g>
<g><path style="opacity:1" fill="#d2a578" d="M 896.5,935.5 C 894.234,939.436 891.234,942.769 887.5,945.5C 889.766,941.564 892.766,938.231 896.5,935.5 Z"/></g>
<g><path style="opacity:1" fill="#5248ff" d="M 118.5,946.5 C 117.269,952.532 115.269,958.199 112.5,963.5C 113.731,957.468 115.731,951.801 118.5,946.5 Z"/></g>
<g><path style="opacity:1" fill="#d0a172" d="M 165.5,937.5 C 162.405,948.123 158.738,958.457 154.5,968.5C 157.201,957.725 160.868,947.392 165.5,937.5 Z"/></g>
<g><path style="opacity:1" fill="#d2a475" d="M 885.5,947.5 C 882.899,951.771 879.566,955.437 875.5,958.5C 878.101,954.229 881.434,950.563 885.5,947.5 Z"/></g>
<g><path style="opacity:1" fill="#5b4eff" d="M 888.5,953.5 C 883.443,959.559 877.776,964.893 871.5,969.5C 876.557,963.441 882.224,958.107 888.5,953.5 Z"/></g>
<g><path style="opacity:1" fill="#d2a375" d="M 875.5,958.5 C 870.559,965.11 864.892,971.11 858.5,976.5C 863.441,969.89 869.108,963.89 875.5,958.5 Z"/></g>
<g><path style="opacity:1" fill="#705fff" d="M 871.5,969.5 C 868.105,973.898 864.105,977.564 859.5,980.5C 862.895,976.102 866.895,972.436 871.5,969.5 Z"/></g>
<g><path style="opacity:1" fill="#5a4dff" d="M 859.5,980.5 C 856.769,984.234 853.436,987.234 849.5,989.5C 849.5,989.167 849.5,988.833 849.5,988.5C 852.564,985.43 855.897,982.763 859.5,980.5 Z"/></g>
<g><path style="opacity:1" fill="#574bff" d="M 849.5,989.5 C 847.1,992.903 844.1,995.57 840.5,997.5C 842.9,994.097 845.9,991.43 849.5,989.5 Z"/></g>
<g><path style="opacity:1" fill="#5d50ff" d="M 840.5,997.5 C 838.1,1000.9 835.1,1003.57 831.5,1005.5C 833.9,1002.1 836.9,999.43 840.5,997.5 Z"/></g>
<g><path style="opacity:1" fill="#d3a578" d="M 154.5,968.5 C 146.814,993.56 140.147,1018.89 134.5,1044.5C 133.853,1043.73 133.52,1042.73 133.5,1041.5C 138.815,1016.55 145.815,992.221 154.5,968.5 Z"/></g>
<g><path style="opacity:1" fill="#644ddb" d="M 811.5,1022.5 C 809.761,1025.24 807.427,1027.24 804.5,1028.5C 806.239,1025.76 808.573,1023.76 811.5,1022.5 Z"/></g>
<g><path style="opacity:1" fill="#d0a886" d="M 856.5,978.5 C 854.167,981.833 851.833,985.167 849.5,988.5C 849.5,988.833 849.5,989.167 849.5,989.5C 845.9,991.43 842.9,994.097 840.5,997.5C 836.9,999.43 833.9,1002.1 831.5,1005.5C 816.44,1020.39 801.106,1035.22 785.5,1050C 784.906,1050.46 784.239,1050.63 783.5,1050.5C 787.167,1046.5 790.833,1042.5 794.5,1038.5C 798.14,1035.53 801.473,1032.19 804.5,1028.5C 807.427,1027.24 809.761,1025.24 811.5,1022.5C 826.5,1007.83 841.5,993.167 856.5,978.5 Z"/></g>
<g><path style="opacity:1" fill="#5d4fff" d="M 112.5,963.5 C 108.241,977.779 104.075,992.113 100,1006.5C 89.5028,1045.48 84.3361,1085.14 84.5,1125.5C 84.7678,1127.1 84.4345,1128.43 83.5,1129.5C 82.3701,1072.16 92.0368,1016.83 112.5,963.5 Z"/></g>
<g><path style="opacity:1" fill="#5449ff" d="M 804.5,1028.5 C 801.473,1032.19 798.14,1035.53 794.5,1038.5C 793.833,1038.5 793.167,1038.5 792.5,1038.5C 796.122,1034.69 800.122,1031.36 804.5,1028.5 Z"/></g>
<g><path style="opacity:1" fill="#5649ff" d="M 792.5,1038.5 C 789.393,1042.22 785.727,1045.22 781.5,1047.5C 784.607,1043.78 788.273,1040.78 792.5,1038.5 Z"/></g>
<g><path style="opacity:1" fill="#fcfbfa" d="M 792.5,1038.5 C 793.167,1038.5 793.833,1038.5 794.5,1038.5C 790.833,1042.5 787.167,1046.5 783.5,1050.5C 778.56,1053.77 774.227,1057.77 770.5,1062.5C 766.564,1064.77 763.231,1067.77 760.5,1071.5C 756.9,1073.43 753.9,1076.1 751.5,1079.5C 747.9,1081.43 744.9,1084.1 742.5,1087.5C 738.215,1091.97 733.548,1095.97 728.5,1099.5C 723.601,1102.46 719.268,1106.12 715.5,1110.5C 697.036,1126.97 677.702,1142.3 657.5,1156.5C 652.929,1158.74 648.929,1161.74 645.5,1165.5C 644.738,1167.26 643.404,1168.26 641.5,1168.5C 637.268,1170.4 633.601,1173.07 630.5,1176.5C 628.704,1178.9 626.37,1180.57 623.5,1181.5C 619.608,1183.06 616.275,1185.4 613.5,1188.5C 613.027,1189.91 612.027,1190.57 610.5,1190.5C 604.612,1193.39 599.278,1197.06 594.5,1201.5C 588.314,1204.42 582.648,1208.09 577.5,1212.5C 552.99,1229.26 527.324,1244.26 500.5,1257.5C 489.516,1262.33 478.849,1267.66 468.5,1273.5C 464.418,1274.38 460.751,1276.04 457.5,1278.5C 452.563,1281.6 447.23,1283.93 441.5,1285.5C 434.53,1287.6 427.864,1290.26 421.5,1293.5C 419.208,1295.27 416.542,1296.27 413.5,1296.5C 399.936,1300.47 386.603,1304.8 373.5,1309.5C 343.808,1317.05 313.641,1321.38 283,1322.5C 260.248,1322.25 238.081,1318.58 216.5,1311.5C 214.447,1311.6 212.78,1310.93 211.5,1309.5C 202.347,1304.76 193.347,1299.76 184.5,1294.5C 180.428,1292.79 177.095,1290.13 174.5,1286.5C 170.833,1282.17 166.833,1278.17 162.5,1274.5C 159.355,1271.54 156.688,1268.21 154.5,1264.5C 155.167,1264.83 155.833,1265.17 156.5,1265.5C 159.161,1268.5 162.495,1270.5 166.5,1271.5C 169.751,1273.96 173.418,1275.62 177.5,1276.5C 197.126,1285.3 217.793,1290.3 239.5,1291.5C 241.948,1292.47 244.615,1292.81 247.5,1292.5C 272.313,1293.32 296.979,1291.82 321.5,1288C 324.958,1287.42 327.624,1286.59 329.5,1285.5C 329.842,1284.66 330.508,1284.33 331.5,1284.5C 333.288,1285.62 335.288,1285.79 337.5,1285C 365.661,1279.63 392.995,1271.8 419.5,1261.5C 428.868,1258.97 437.868,1255.64 446.5,1251.5C 454.346,1249.57 461.679,1246.57 468.5,1242.5C 471.241,1242.29 473.574,1241.29 475.5,1239.5C 478.918,1239.08 481.918,1237.74 484.5,1235.5C 488.582,1234.62 492.249,1232.96 495.5,1230.5C 502.208,1228.31 508.541,1225.31 514.5,1221.5C 519.516,1218.33 524.849,1215.66 530.5,1213.5C 537.938,1210.61 544.938,1206.95 551.5,1202.5C 551.842,1201.66 552.508,1201.33 553.5,1201.5C 556.992,1200.59 559.992,1198.92 562.5,1196.5C 573.157,1191.84 583.157,1186.18 592.5,1179.5C 594.674,1179.25 596.341,1178.25 597.5,1176.5C 601.505,1175.5 604.839,1173.5 607.5,1170.5C 609.674,1170.25 611.341,1169.25 612.5,1167.5C 614.674,1167.25 616.341,1166.25 617.5,1164.5C 620.704,1163.62 623.371,1161.95 625.5,1159.5C 629.683,1157.91 633.35,1155.58 636.5,1152.5C 640.683,1150.91 644.35,1148.58 647.5,1145.5C 649.027,1145.57 650.027,1144.91 650.5,1143.5C 652.027,1143.57 653.027,1142.91 653.5,1141.5C 655.027,1141.57 656.027,1140.91 656.5,1139.5C 658.027,1139.57 659.027,1138.91 659.5,1137.5C 661.027,1137.57 662.027,1136.91 662.5,1135.5C 664.027,1135.57 665.027,1134.91 665.5,1133.5C 667.027,1133.57 668.027,1132.91 668.5,1131.5C 670.027,1131.57 671.027,1130.91 671.5,1129.5C 675.392,1127.94 678.725,1125.6 681.5,1122.5C 683.027,1122.57 684.027,1121.91 684.5,1120.5C 688.392,1118.94 691.725,1116.6 694.5,1113.5C 697.37,1112.57 699.704,1110.9 701.5,1108.5C 703.404,1108.26 704.738,1107.26 705.5,1105.5C 707.027,1105.57 708.027,1104.91 708.5,1103.5C 710.404,1103.26 711.738,1102.26 712.5,1100.5C 715.37,1099.57 717.704,1097.9 719.5,1095.5C 721.404,1095.26 722.738,1094.26 723.5,1092.5C 725.404,1092.26 726.738,1091.26 727.5,1089.5C 729.404,1089.26 730.738,1088.26 731.5,1086.5C 733.404,1086.26 734.738,1085.26 735.5,1083.5C 737.404,1083.26 738.738,1082.26 739.5,1080.5C 743.051,1078.89 746.051,1076.56 748.5,1073.5C 750.404,1073.26 751.738,1072.26 752.5,1070.5C 754.749,1069.92 756.415,1068.59 757.5,1066.5C 759.404,1066.26 760.738,1065.26 761.5,1063.5C 763.749,1062.92 765.415,1061.59 766.5,1059.5C 768.749,1058.92 770.415,1057.59 771.5,1055.5C 773.749,1054.92 775.415,1053.59 776.5,1051.5C 778.749,1050.92 780.415,1049.59 781.5,1047.5C 785.727,1045.22 789.393,1042.22 792.5,1038.5 Z"/></g>
<g><path style="opacity:1" fill="#5148ff" d="M 781.5,1047.5 C 780.415,1049.59 778.749,1050.92 776.5,1051.5C 777.585,1049.41 779.251,1048.08 781.5,1047.5 Z"/></g>
<g><path style="opacity:1" fill="#5448ff" d="M 776.5,1051.5 C 775.415,1053.59 773.749,1054.92 771.5,1055.5C 772.585,1053.41 774.251,1052.08 776.5,1051.5 Z"/></g>
<g><path style="opacity:1" fill="#d4a77b" d="M 783.5,1050.5 C 779.773,1055.23 775.44,1059.23 770.5,1062.5C 774.227,1057.77 778.56,1053.77 783.5,1050.5 Z"/></g>
<g><path style="opacity:1" fill="#5046ff" d="M 771.5,1055.5 C 770.415,1057.59 768.749,1058.92 766.5,1059.5C 767.585,1057.41 769.251,1056.08 771.5,1055.5 Z"/></g>
<g><path style="opacity:1" fill="#d4a679" d="M 133.5,1047.5 C 121.897,1097.48 119.897,1147.81 127.5,1198.5C 126.167,1196.7 125.333,1194.03 125,1190.5C 118.632,1142.42 120.965,1094.76 132,1047.5C 132.779,1044.9 133.279,1044.9 133.5,1047.5 Z"/></g>
<g><path style="opacity:1" fill="#554aff" d="M 766.5,1059.5 C 765.415,1061.59 763.749,1062.92 761.5,1063.5C 762.585,1061.41 764.251,1060.08 766.5,1059.5 Z"/></g>
<g><path style="opacity:1" fill="#d2a476" d="M 770.5,1062.5 C 767.769,1066.23 764.436,1069.23 760.5,1071.5C 763.231,1067.77 766.564,1064.77 770.5,1062.5 Z"/></g>
<g><path style="opacity:1" fill="#4944ff" d="M 761.5,1063.5 C 760.738,1065.26 759.404,1066.26 757.5,1066.5C 758.262,1064.74 759.596,1063.74 761.5,1063.5 Z"/></g>
<g><path style="opacity:1" fill="#574aff" d="M 757.5,1066.5 C 756.415,1068.59 754.749,1069.92 752.5,1070.5C 753.585,1068.41 755.251,1067.08 757.5,1066.5 Z"/></g>
<g><path style="opacity:1" fill="#4841ff" d="M 752.5,1070.5 C 751.738,1072.26 750.404,1073.26 748.5,1073.5C 749.262,1071.74 750.596,1070.74 752.5,1070.5 Z"/></g>
<g><path style="opacity:1" fill="#d1a273" d="M 760.5,1071.5 C 758.1,1074.9 755.1,1077.57 751.5,1079.5C 753.9,1076.1 756.9,1073.43 760.5,1071.5 Z"/></g>
<g><path style="opacity:1" fill="#5246ff" d="M 748.5,1073.5 C 746.051,1076.56 743.051,1078.89 739.5,1080.5C 741.949,1077.44 744.949,1075.11 748.5,1073.5 Z"/></g>
<g><path style="opacity:1" fill="#453dff" d="M 739.5,1080.5 C 738.738,1082.26 737.404,1083.26 735.5,1083.5C 736.262,1081.74 737.596,1080.74 739.5,1080.5 Z"/></g>
<g><path style="opacity:1" fill="#d2a375" d="M 751.5,1079.5 C 749.1,1082.9 746.1,1085.57 742.5,1087.5C 744.9,1084.1 747.9,1081.43 751.5,1079.5 Z"/></g>
<g><path style="opacity:1" fill="#4a43ff" d="M 735.5,1083.5 C 734.738,1085.26 733.404,1086.26 731.5,1086.5C 732.262,1084.74 733.596,1083.74 735.5,1083.5 Z"/></g>
<g><path style="opacity:1" fill="#4d44ff" d="M 731.5,1086.5 C 730.738,1088.26 729.404,1089.26 727.5,1089.5C 728.262,1087.74 729.596,1086.74 731.5,1086.5 Z"/></g>
<g><path style="opacity:1" fill="#4a43ff" d="M 727.5,1089.5 C 726.738,1091.26 725.404,1092.26 723.5,1092.5C 724.262,1090.74 725.596,1089.74 727.5,1089.5 Z"/></g>
<g><path style="opacity:1" fill="#5148ff" d="M 723.5,1092.5 C 722.738,1094.26 721.404,1095.26 719.5,1095.5C 720.262,1093.74 721.596,1092.74 723.5,1092.5 Z"/></g>
<g><path style="opacity:1" fill="#4e44ff" d="M 719.5,1095.5 C 717.704,1097.9 715.37,1099.57 712.5,1100.5C 714.296,1098.1 716.63,1096.43 719.5,1095.5 Z"/></g>
<g><path style="opacity:1" fill="#4940ff" d="M 712.5,1100.5 C 711.738,1102.26 710.404,1103.26 708.5,1103.5C 709.262,1101.74 710.596,1100.74 712.5,1100.5 Z"/></g>
<g><path style="opacity:1" fill="#4540ff" d="M 708.5,1103.5 C 708.027,1104.91 707.027,1105.57 705.5,1105.5C 705.973,1104.09 706.973,1103.43 708.5,1103.5 Z"/></g>
<g><path style="opacity:1" fill="#d2a375" d="M 728.5,1099.5 C 724.732,1103.88 720.399,1107.54 715.5,1110.5C 719.268,1106.12 723.601,1102.46 728.5,1099.5 Z"/></g>
<g><path style="opacity:1" fill="#4740ff" d="M 705.5,1105.5 C 704.738,1107.26 703.404,1108.26 701.5,1108.5C 702.262,1106.74 703.596,1105.74 705.5,1105.5 Z"/></g>
<g><path style="opacity:1" fill="#5147ff" d="M 701.5,1108.5 C 699.704,1110.9 697.37,1112.57 694.5,1113.5C 696.296,1111.1 698.63,1109.43 701.5,1108.5 Z"/></g>
<g><path style="opacity:1" fill="#4d43ff" d="M 694.5,1113.5 C 691.725,1116.6 688.392,1118.94 684.5,1120.5C 687.275,1117.4 690.608,1115.06 694.5,1113.5 Z"/></g>
<g><path style="opacity:1" fill="#413cff" d="M 684.5,1120.5 C 684.027,1121.91 683.027,1122.57 681.5,1122.5C 681.973,1121.09 682.973,1120.43 684.5,1120.5 Z"/></g>
<g><path style="opacity:1" fill="#5247ff" d="M 681.5,1122.5 C 678.725,1125.6 675.392,1127.94 671.5,1129.5C 674.275,1126.4 677.608,1124.06 681.5,1122.5 Z"/></g>
<g><path style="opacity:1" fill="#5249ff" d="M 671.5,1129.5 C 671.027,1130.91 670.027,1131.57 668.5,1131.5C 668.973,1130.09 669.973,1129.43 671.5,1129.5 Z"/></g>
<g><path style="opacity:1" fill="#8c88ff" d="M 84.5,1125.5 C 85.4682,1127.61 85.8016,1129.94 85.5,1132.5C 84.6618,1132.84 84.3284,1133.51 84.5,1134.5C 83.5489,1133.08 83.2155,1131.41 83.5,1129.5C 84.4345,1128.43 84.7678,1127.1 84.5,1125.5 Z"/></g>
<g><path style="opacity:1" fill="#4e47ff" d="M 668.5,1131.5 C 668.027,1132.91 667.027,1133.57 665.5,1133.5C 665.973,1132.09 666.973,1131.43 668.5,1131.5 Z"/></g>
<g><path style="opacity:1" fill="#423eff" d="M 665.5,1133.5 C 665.027,1134.91 664.027,1135.57 662.5,1135.5C 662.973,1134.09 663.973,1133.43 665.5,1133.5 Z"/></g>
<g><path style="opacity:1" fill="#4e46ff" d="M 662.5,1135.5 C 662.027,1136.91 661.027,1137.57 659.5,1137.5C 659.973,1136.09 660.973,1135.43 662.5,1135.5 Z"/></g>
<g><path style="opacity:1" fill="#4540ff" d="M 659.5,1137.5 C 659.027,1138.91 658.027,1139.57 656.5,1139.5C 656.973,1138.09 657.973,1137.43 659.5,1137.5 Z"/></g>
<g><path style="opacity:1" fill="#443fff" d="M 656.5,1139.5 C 656.027,1140.91 655.027,1141.57 653.5,1141.5C 653.973,1140.09 654.973,1139.43 656.5,1139.5 Z"/></g>
<g><path style="opacity:1" fill="#4c45ff" d="M 653.5,1141.5 C 653.027,1142.91 652.027,1143.57 650.5,1143.5C 650.973,1142.09 651.973,1141.43 653.5,1141.5 Z"/></g>
<g><path style="opacity:1" fill="#5249ff" d="M 650.5,1143.5 C 650.027,1144.91 649.027,1145.57 647.5,1145.5C 647.973,1144.09 648.973,1143.43 650.5,1143.5 Z"/></g>
<g><path style="opacity:1" fill="#5247ff" d="M 647.5,1145.5 C 644.35,1148.58 640.683,1150.91 636.5,1152.5C 639.65,1149.42 643.317,1147.09 647.5,1145.5 Z"/></g>
<g><path style="opacity:1" fill="#5046ff" d="M 636.5,1152.5 C 633.35,1155.58 629.683,1157.91 625.5,1159.5C 628.65,1156.42 632.317,1154.09 636.5,1152.5 Z"/></g>
<g><path style="opacity:1" fill="#554aff" d="M 625.5,1159.5 C 623.371,1161.95 620.704,1163.62 617.5,1164.5C 619.629,1162.05 622.296,1160.38 625.5,1159.5 Z"/></g>
<g><path style="opacity:1" fill="#d0a070" d="M 657.5,1156.5 C 654.071,1160.26 650.071,1163.26 645.5,1165.5C 648.929,1161.74 652.929,1158.74 657.5,1156.5 Z"/></g>
<g><path style="opacity:1" fill="#4a42ff" d="M 617.5,1164.5 C 616.341,1166.25 614.674,1167.25 612.5,1167.5C 613.659,1165.75 615.326,1164.75 617.5,1164.5 Z"/></g>
<g><path style="opacity:1" fill="#483fff" d="M 612.5,1167.5 C 611.341,1169.25 609.674,1170.25 607.5,1170.5C 608.659,1168.75 610.326,1167.75 612.5,1167.5 Z"/></g>
<g><path style="opacity:1" fill="#5b4fff" d="M 85.5,1132.5 C 86.8398,1167.85 97.1731,1200.18 116.5,1229.5C 103.033,1211.65 93.8661,1191.65 89,1169.5C 86.4105,1157.96 84.9105,1146.3 84.5,1134.5C 84.3284,1133.51 84.6618,1132.84 85.5,1132.5 Z"/></g>
<g><path style="opacity:1" fill="#574cff" d="M 607.5,1170.5 C 604.839,1173.5 601.505,1175.5 597.5,1176.5C 600.494,1174 603.827,1172 607.5,1170.5 Z"/></g>
<g><path style="opacity:1" fill="#d0a070" d="M 641.5,1168.5 C 638.399,1171.93 634.732,1174.6 630.5,1176.5C 633.601,1173.07 637.268,1170.4 641.5,1168.5 Z"/></g>
<g><path style="opacity:1" fill="#4941ff" d="M 597.5,1176.5 C 596.341,1178.25 594.674,1179.25 592.5,1179.5C 593.659,1177.75 595.326,1176.75 597.5,1176.5 Z"/></g>
<g><path style="opacity:1" fill="#d09f70" d="M 623.5,1181.5 C 620.725,1184.6 617.392,1186.94 613.5,1188.5C 616.275,1185.4 619.608,1183.06 623.5,1181.5 Z"/></g>
<g><path style="opacity:1" fill="#5146ff" d="M 592.5,1179.5 C 583.157,1186.18 573.157,1191.84 562.5,1196.5C 572.167,1190.33 582.167,1184.66 592.5,1179.5 Z"/></g>
<g><path style="opacity:1" fill="#d1a172" d="M 610.5,1190.5 C 605.722,1194.94 600.388,1198.61 594.5,1201.5C 599.278,1197.06 604.612,1193.39 610.5,1190.5 Z"/></g>
<g><path style="opacity:1" fill="#4e45ff" d="M 562.5,1196.5 C 559.992,1198.92 556.992,1200.59 553.5,1201.5C 556.008,1199.08 559.008,1197.41 562.5,1196.5 Z"/></g>
<g><path style="opacity:1" fill="#d0a070" d="M 594.5,1201.5 C 589.352,1205.91 583.686,1209.58 577.5,1212.5C 582.648,1208.09 588.314,1204.42 594.5,1201.5 Z"/></g>
<g><path style="opacity:1" fill="#4d43ff" d="M 551.5,1202.5 C 544.938,1206.95 537.938,1210.61 530.5,1213.5C 537.019,1209.07 544.019,1205.41 551.5,1202.5 Z"/></g>
<g><path style="opacity:1" fill="#d3a476" d="M 128.5,1200.5 C 130.556,1210.67 133.222,1220.67 136.5,1230.5C 132.432,1221.79 129.432,1212.63 127.5,1203C 127.528,1201.93 127.861,1201.1 128.5,1200.5 Z"/></g>
<g><path style="opacity:1" fill="#5f4eff" d="M 514.5,1221.5 C 508.541,1225.31 502.208,1228.31 495.5,1230.5C 501.412,1226.71 507.745,1223.71 514.5,1221.5 Z"/></g>
<g><path style="opacity:1" fill="#5146ff" d="M 116.5,1229.5 C 118.587,1230.58 119.92,1232.25 120.5,1234.5C 118.413,1233.42 117.08,1231.75 116.5,1229.5 Z"/></g>
<g><path style="opacity:1" fill="#4d44ff" d="M 495.5,1230.5 C 492.249,1232.96 488.582,1234.62 484.5,1235.5C 487.751,1233.04 491.418,1231.38 495.5,1230.5 Z"/></g>
<g><path style="opacity:1" fill="#5048ff" d="M 120.5,1234.5 C 122.914,1235.91 124.581,1237.91 125.5,1240.5C 123.086,1239.09 121.419,1237.09 120.5,1234.5 Z"/></g>
<g><path style="opacity:1" fill="#6856ff" d="M 484.5,1235.5 C 481.918,1237.74 478.918,1239.08 475.5,1239.5C 478.088,1237.38 481.088,1236.04 484.5,1235.5 Z"/></g>
<g><path style="opacity:1" fill="#6b58ff" d="M 125.5,1240.5 C 130.875,1245.51 136.208,1250.51 141.5,1255.5C 134.897,1251.86 129.564,1246.86 125.5,1240.5 Z"/></g>
<g><path style="opacity:1" fill="#d0a172" d="M 138.5,1235.5 C 142.008,1241.18 145.008,1247.18 147.5,1253.5C 143.46,1248.09 140.46,1242.09 138.5,1235.5 Z"/></g>
<g><path style="opacity:1" fill="#5850ff" d="M 475.5,1239.5 C 473.574,1241.29 471.241,1242.29 468.5,1242.5C 470.426,1240.71 472.759,1239.71 475.5,1239.5 Z"/></g>
<g><path style="opacity:1" fill="#5b50ff" d="M 468.5,1242.5 C 461.679,1246.57 454.346,1249.57 446.5,1251.5C 453.447,1247.74 460.781,1244.74 468.5,1242.5 Z"/></g>
<g><path style="opacity:1" fill="#4a42ff" d="M 141.5,1255.5 C 143.404,1255.74 144.738,1256.74 145.5,1258.5C 143.596,1258.26 142.262,1257.26 141.5,1255.5 Z"/></g>
<g><path style="opacity:1" fill="#554aff" d="M 446.5,1251.5 C 437.868,1255.64 428.868,1258.97 419.5,1261.5C 428.128,1257.4 437.128,1254.07 446.5,1251.5 Z"/></g>
<g><path style="opacity:1" fill="#d6ab81" d="M 500.5,1257.5 C 492.724,1262.23 484.724,1266.73 476.5,1271C 474.091,1272.71 471.425,1273.54 468.5,1273.5C 478.849,1267.66 489.516,1262.33 500.5,1257.5 Z"/></g>
<g><path style="opacity:1" fill="#4b40ff" d="M 145.5,1258.5 C 148.37,1259.43 150.704,1261.1 152.5,1263.5C 149.63,1262.57 147.296,1260.9 145.5,1258.5 Z"/></g>
<g><path style="opacity:1" fill="#554aff" d="M 156.5,1265.5 C 160.173,1267 163.506,1269 166.5,1271.5C 162.495,1270.5 159.161,1268.5 156.5,1265.5 Z"/></g>
<g><path style="opacity:1" fill="#6855ff" d="M 166.5,1271.5 C 170.535,1272.35 174.202,1274.02 177.5,1276.5C 173.418,1275.62 169.751,1273.96 166.5,1271.5 Z"/></g>
<g><path style="opacity:1" fill="#d3a477" d="M 162.5,1274.5 C 166.833,1278.17 170.833,1282.17 174.5,1286.5C 169.5,1283.5 165.5,1279.5 162.5,1274.5 Z"/></g>
<g><path style="opacity:1" fill="#5d50ff" d="M 419.5,1261.5 C 392.995,1271.8 365.661,1279.63 337.5,1285C 335.288,1285.79 333.288,1285.62 331.5,1284.5C 361.331,1278.71 390.664,1271.04 419.5,1261.5 Z"/></g>
<g><path style="opacity:1" fill="#d5a87d" d="M 468.5,1273.5 C 465.202,1275.98 461.535,1277.65 457.5,1278.5C 460.751,1276.04 464.418,1274.38 468.5,1273.5 Z"/></g>
<g><path style="opacity:1" fill="#5d4fff" d="M 177.5,1276.5 C 198.742,1284.6 220.742,1289.26 243.5,1290.5C 242.432,1291.43 241.099,1291.77 239.5,1291.5C 217.793,1290.3 197.126,1285.3 177.5,1276.5 Z"/></g>
<g><path style="opacity:1" fill="#d0a070" d="M 441.5,1285.5 C 435.296,1289.13 428.629,1291.79 421.5,1293.5C 427.864,1290.26 434.53,1287.6 441.5,1285.5 Z"/></g>
<g><path style="opacity:1" fill="#9491ff" d="M 243.5,1290.5 C 246.059,1290.2 248.393,1290.53 250.5,1291.5C 249.209,1291.26 248.209,1291.6 247.5,1292.5C 244.615,1292.81 241.948,1292.47 239.5,1291.5C 241.099,1291.77 242.432,1291.43 243.5,1290.5 Z"/></g>
<g><path style="opacity:1" fill="#6153ff" d="M 329.5,1285.5 C 327.624,1286.59 324.958,1287.42 321.5,1288C 296.979,1291.82 272.313,1293.32 247.5,1292.5C 248.209,1291.6 249.209,1291.26 250.5,1291.5C 276.989,1291.55 303.322,1289.55 329.5,1285.5 Z"/></g>
<g><path style="opacity:1" fill="#d2a374" d="M 413.5,1296.5 C 402.369,1300.94 391.036,1305.1 379.5,1309C 377.527,1309.5 375.527,1309.66 373.5,1309.5C 386.603,1304.8 399.936,1300.47 413.5,1296.5 Z"/></g>
<g><path style="opacity:1" fill="#d0a172" d="M 184.5,1294.5 C 193.347,1299.76 202.347,1304.76 211.5,1309.5C 201.407,1306.29 192.407,1301.29 184.5,1294.5 Z"/></g>
<g><path style="opacity:1" fill="#d3a679" d="M 373.5,1309.5 C 331.108,1323.1 287.774,1326.6 243.5,1320C 233.982,1318.44 224.982,1315.6 216.5,1311.5C 238.081,1318.58 260.248,1322.25 283,1322.5C 313.641,1321.38 343.808,1317.05 373.5,1309.5 Z"/></g>
</svg>
